<?xml version="1.0" encoding="UTF-8" standalone="no"?>
<!DOCTYPE svg PUBLIC "-//W3C//DTD SVG 1.1//EN"
 "http://www.w3.org/Graphics/SVG/1.1/DTD/svg11.dtd">
<!-- Generated by graphviz version 2.38.0 (20140413.2041)
 -->
<!-- Title: controllers_diagram Pages: 1 -->
<svg width="979pt" height="874pt"
 viewBox="0.00 0.00 979.00 873.50" xmlns="http://www.w3.org/2000/svg" xmlns:xlink="http://www.w3.org/1999/xlink">
<g id="graph0" class="graph" transform="scale(1 1) rotate(0) translate(381.5 545.5)">
<title>controllers_diagram</title>
<polygon fill="none" stroke="none" points="-381.5,328 -381.5,-545.5 597.5,-545.5 597.5,328 -381.5,328"/>
<!-- _diagram_info -->
<g id="node1" class="node"><title>_diagram_info</title>
<text text-anchor="start" x="332" y="260.4" font-family="Times,serif" font-size="13.00">Controllers diagram</text>
<text text-anchor="start" x="332" y="274.4" font-family="Times,serif" font-size="13.00">Date: Jul 05 2019 &#45; 12:49</text>
<text text-anchor="start" x="332" y="288.4" font-family="Times,serif" font-size="13.00">Migration version: 20190627152737</text>
<text text-anchor="start" x="332" y="302.4" font-family="Times,serif" font-size="13.00">Generated by RailRoady 1.5.3</text>
<text text-anchor="start" x="332" y="316.4" font-family="Times,serif" font-size="13.00">http://railroady.prestonlee.com</text>
</g>
<!-- CommentsController -->
<g id="node2" class="node"><title>CommentsController</title>
<path fill="none" stroke="black" d="M246,-234.5C246,-234.5 354,-234.5 354,-234.5 360,-234.5 366,-240.5 366,-246.5 366,-246.5 366,-405.5 366,-405.5 366,-411.5 360,-417.5 354,-417.5 354,-417.5 246,-417.5 246,-417.5 240,-417.5 234,-411.5 234,-405.5 234,-405.5 234,-246.5 234,-246.5 234,-240.5 240,-234.5 246,-234.5"/>
<text text-anchor="middle" x="300" y="-402.3" font-family="Times,serif" font-size="14.00">CommentsController</text>
<polyline fill="none" stroke="black" points="234,-394.5 366,-394.5 "/>
<text text-anchor="start" x="242" y="-379.3" font-family="Times,serif" font-size="14.00">create</text>
<text text-anchor="start" x="242" y="-364.3" font-family="Times,serif" font-size="14.00">destroy</text>
<text text-anchor="start" x="242" y="-349.3" font-family="Times,serif" font-size="14.00">edit</text>
<text text-anchor="start" x="242" y="-334.3" font-family="Times,serif" font-size="14.00">like_comment</text>
<text text-anchor="start" x="242" y="-319.3" font-family="Times,serif" font-size="14.00">update</text>
<polyline fill="none" stroke="black" points="234,-311.5 366,-311.5 "/>
<polyline fill="none" stroke="black" points="234,-287.5 366,-287.5 "/>
<text text-anchor="start" x="242" y="-272.3" font-family="Times,serif" font-size="14.00">_layout</text>
<text text-anchor="start" x="242" y="-257.3" font-family="Times,serif" font-size="14.00">comments_params</text>
<text text-anchor="start" x="242" y="-242.3" font-family="Times,serif" font-size="14.00">set_comment</text>
</g>
<!-- TopicsController -->
<g id="node3" class="node"><title>TopicsController</title>
<path fill="none" stroke="black" d="M-59.5,-343C-59.5,-343 25.5,-343 25.5,-343 31.5,-343 37.5,-349 37.5,-355 37.5,-355 37.5,-529 37.5,-529 37.5,-535 31.5,-541 25.5,-541 25.5,-541 -59.5,-541 -59.5,-541 -65.5,-541 -71.5,-535 -71.5,-529 -71.5,-529 -71.5,-355 -71.5,-355 -71.5,-349 -65.5,-343 -59.5,-343"/>
<text text-anchor="middle" x="-17" y="-525.8" font-family="Times,serif" font-size="14.00">TopicsController</text>
<polyline fill="none" stroke="black" points="-71.5,-518 37.5,-518 "/>
<text text-anchor="start" x="-63.5" y="-502.8" font-family="Times,serif" font-size="14.00">create</text>
<text text-anchor="start" x="-63.5" y="-487.8" font-family="Times,serif" font-size="14.00">destroy</text>
<text text-anchor="start" x="-63.5" y="-472.8" font-family="Times,serif" font-size="14.00">edit</text>
<text text-anchor="start" x="-63.5" y="-457.8" font-family="Times,serif" font-size="14.00">new</text>
<text text-anchor="start" x="-63.5" y="-442.8" font-family="Times,serif" font-size="14.00">show</text>
<text text-anchor="start" x="-63.5" y="-427.8" font-family="Times,serif" font-size="14.00">update</text>
<polyline fill="none" stroke="black" points="-71.5,-420 37.5,-420 "/>
<polyline fill="none" stroke="black" points="-71.5,-396 37.5,-396 "/>
<text text-anchor="start" x="-63.5" y="-380.8" font-family="Times,serif" font-size="14.00">_layout</text>
<text text-anchor="start" x="-63.5" y="-365.8" font-family="Times,serif" font-size="14.00">set_topic</text>
<text text-anchor="start" x="-63.5" y="-350.8" font-family="Times,serif" font-size="14.00">topic_params</text>
</g>
<!-- ForumsController -->
<g id="node4" class="node"><title>ForumsController</title>
<path fill="none" stroke="black" d="M-42,323C-42,323 48,323 48,323 54,323 60,317 60,311 60,311 60,227 60,227 60,221 54,215 48,215 48,215 -42,215 -42,215 -48,215 -54,221 -54,227 -54,227 -54,311 -54,311 -54,317 -48,323 -42,323"/>
<text text-anchor="middle" x="3" y="230.2" font-family="Times,serif" font-size="14.00">ForumsController</text>
<polyline fill="none" stroke="black" points="-54,238 60,238 "/>
<text text-anchor="start" x="-46" y="253.2" font-family="Times,serif" font-size="14.00">index</text>
<text text-anchor="start" x="-46" y="268.2" font-family="Times,serif" font-size="14.00">show</text>
<polyline fill="none" stroke="black" points="-54,276 60,276 "/>
<polyline fill="none" stroke="black" points="-54,300 60,300 "/>
<text text-anchor="start" x="-46" y="315.2" font-family="Times,serif" font-size="14.00">_layout</text>
</g>
<!-- ApplicationController -->
<g id="node5" class="node"><title>ApplicationController</title>
<path fill="none" stroke="black" d="M102,305C102,305 272,305 272,305 278,305 284,299 284,293 284,293 284,195 284,195 284,189 278,183 272,183 272,183 102,183 102,183 96,183 90,189 90,195 90,195 90,293 90,293 90,299 96,305 102,305"/>
<text text-anchor="middle" x="187" y="198.2" font-family="Times,serif" font-size="14.00">ApplicationController</text>
<polyline fill="none" stroke="black" points="90,206 284,206 "/>
<text text-anchor="start" x="98" y="221.2" font-family="Times,serif" font-size="14.00">configure_permitted_parameters</text>
<text text-anchor="start" x="98" y="236.2" font-family="Times,serif" font-size="14.00">set_current_user</text>
<polyline fill="none" stroke="black" points="90,244 284,244 "/>
<text text-anchor="start" x="98" y="259.2" font-family="Times,serif" font-size="14.00">after_update_path_for</text>
<text text-anchor="start" x="98" y="274.2" font-family="Times,serif" font-size="14.00">update_resource</text>
<polyline fill="none" stroke="black" points="90,282 284,282 "/>
<text text-anchor="start" x="98" y="297.2" font-family="Times,serif" font-size="14.00">_layout</text>
</g>
<!-- Registrations::PasswordsController -->
<g id="node6" class="node"><title>Registrations::PasswordsController</title>
<path fill="none" stroke="black" d="M-294,305C-294,305 -110,305 -110,305 -104,305 -98,299 -98,293 -98,293 -98,223 -98,223 -98,217 -104,211 -110,211 -110,211 -294,211 -294,211 -300,211 -306,217 -306,223 -306,223 -306,293 -306,293 -306,299 -300,305 -294,305"/>
<text text-anchor="middle" x="-202" y="226.2" font-family="Times,serif" font-size="14.00">Registrations::PasswordsController</text>
<polyline fill="none" stroke="black" points="-306,234 -98,234 "/>
<polyline fill="none" stroke="black" points="-306,258 -98,258 "/>
<polyline fill="none" stroke="black" points="-306,282 -98,282 "/>
<text text-anchor="start" x="-298" y="297.2" font-family="Times,serif" font-size="14.00">_layout</text>
</g>
<!-- Registrations::OmniauthCallbacksController -->
<g id="node7" class="node"><title>Registrations::OmniauthCallbacksController</title>
<path fill="none" stroke="black" d="M-131.5,53C-131.5,53 103.5,53 103.5,53 109.5,53 115.5,47 115.5,41 115.5,41 115.5,-29 115.5,-29 115.5,-35 109.5,-41 103.5,-41 103.5,-41 -131.5,-41 -131.5,-41 -137.5,-41 -143.5,-35 -143.5,-29 -143.5,-29 -143.5,41 -143.5,41 -143.5,47 -137.5,53 -131.5,53"/>
<text text-anchor="middle" x="-14" y="-25.8" font-family="Times,serif" font-size="14.00">Registrations::OmniauthCallbacksController</text>
<polyline fill="none" stroke="black" points="-143.5,-18 115.5,-18 "/>
<polyline fill="none" stroke="black" points="-143.5,6 115.5,6 "/>
<polyline fill="none" stroke="black" points="-143.5,30 115.5,30 "/>
<text text-anchor="start" x="-135.5" y="45.2" font-family="Times,serif" font-size="14.00">_layout</text>
</g>
<!-- Registrations::UnlocksController -->
<g id="node8" class="node"><title>Registrations::UnlocksController</title>
<path fill="none" stroke="black" d="M336,-19C336,-19 508,-19 508,-19 514,-19 520,-25 520,-31 520,-31 520,-101 520,-101 520,-107 514,-113 508,-113 508,-113 336,-113 336,-113 330,-113 324,-107 324,-101 324,-101 324,-31 324,-31 324,-25 330,-19 336,-19"/>
<text text-anchor="middle" x="422" y="-97.8" font-family="Times,serif" font-size="14.00">Registrations::UnlocksController</text>
<polyline fill="none" stroke="black" points="324,-90 520,-90 "/>
<polyline fill="none" stroke="black" points="324,-66 520,-66 "/>
<polyline fill="none" stroke="black" points="324,-42 520,-42 "/>
<text text-anchor="start" x="332" y="-26.8" font-family="Times,serif" font-size="14.00">_layout</text>
</g>
<!-- Registrations::RegistrationsController -->
<g id="node9" class="node"><title>Registrations::RegistrationsController</title>
<path fill="none" stroke="black" d="M84,-72.5C84,-72.5 282,-72.5 282,-72.5 288,-72.5 294,-78.5 294,-84.5 294,-84.5 294,-183.5 294,-183.5 294,-189.5 288,-195.5 282,-195.5 282,-195.5 84,-195.5 84,-195.5 78,-195.5 72,-189.5 72,-183.5 72,-183.5 72,-84.5 72,-84.5 72,-78.5 78,-72.5 84,-72.5"/>
<text text-anchor="middle" x="183" y="-180.3" font-family="Times,serif" font-size="14.00">Registrations::RegistrationsController</text>
<polyline fill="none" stroke="black" points="72,-172.5 294,-172.5 "/>
<polyline fill="none" stroke="black" points="72,-148.5 294,-148.5 "/>
<text text-anchor="start" x="80" y="-133.3" font-family="Times,serif" font-size="14.00">after_update_path_for</text>
<text text-anchor="start" x="80" y="-118.3" font-family="Times,serif" font-size="14.00">configure_account_update_params</text>
<text text-anchor="start" x="80" y="-103.3" font-family="Times,serif" font-size="14.00">update_resource</text>
<polyline fill="none" stroke="black" points="72,-95.5 294,-95.5 "/>
<text text-anchor="start" x="80" y="-80.3" font-family="Times,serif" font-size="14.00">_layout</text>
</g>
<!-- Registrations::ConfirmationsController -->
<g id="node10" class="node"><title>Registrations::ConfirmationsController</title>
<path fill="none" stroke="black" d="M-168,179C-168,179 38,179 38,179 44,179 50,173 50,167 50,167 50,97 50,97 50,91 44,85 38,85 38,85 -168,85 -168,85 -174,85 -180,91 -180,97 -180,97 -180,167 -180,167 -180,173 -174,179 -168,179"/>
<text text-anchor="middle" x="-65" y="100.2" font-family="Times,serif" font-size="14.00">Registrations::ConfirmationsController</text>
<polyline fill="none" stroke="black" points="-180,108 50,108 "/>
<polyline fill="none" stroke="black" points="-180,132 50,132 "/>
<polyline fill="none" stroke="black" points="-180,156 50,156 "/>
<text text-anchor="start" x="-172" y="171.2" font-family="Times,serif" font-size="14.00">_layout</text>
</g>
<!-- Registrations::SessionsController -->
<g id="node11" class="node"><title>Registrations::SessionsController</title>
<path fill="none" stroke="black" d="M408.5,215C408.5,215 581.5,215 581.5,215 587.5,215 593.5,209 593.5,203 593.5,203 593.5,133 593.5,133 593.5,127 587.5,121 581.5,121 581.5,121 408.5,121 408.5,121 402.5,121 396.5,127 396.5,133 396.5,133 396.5,203 396.5,203 396.5,209 402.5,215 408.5,215"/>
<text text-anchor="middle" x="495" y="136.2" font-family="Times,serif" font-size="14.00">Registrations::SessionsController</text>
<polyline fill="none" stroke="black" points="396.5,144 593.5,144 "/>
<polyline fill="none" stroke="black" points="396.5,168 593.5,168 "/>
<polyline fill="none" stroke="black" points="396.5,192 593.5,192 "/>
<text text-anchor="start" x="404.5" y="207.2" font-family="Times,serif" font-size="14.00">_layout</text>
</g>
<!-- ProfessorsController -->
<g id="node12" class="node"><title>ProfessorsController</title>
<path fill="none" stroke="black" d="M-222,-235C-222,-235 -118,-235 -118,-235 -112,-235 -106,-241 -106,-247 -106,-247 -106,-421 -106,-421 -106,-427 -112,-433 -118,-433 -118,-433 -222,-433 -222,-433 -228,-433 -234,-427 -234,-421 -234,-421 -234,-247 -234,-247 -234,-241 -228,-235 -222,-235"/>
<text text-anchor="middle" x="-170" y="-417.8" font-family="Times,serif" font-size="14.00">ProfessorsController</text>
<polyline fill="none" stroke="black" points="-234,-410 -106,-410 "/>
<text text-anchor="start" x="-226" y="-394.8" font-family="Times,serif" font-size="14.00">create</text>
<text text-anchor="start" x="-226" y="-379.8" font-family="Times,serif" font-size="14.00">destroy</text>
<text text-anchor="start" x="-226" y="-364.8" font-family="Times,serif" font-size="14.00">edit</text>
<text text-anchor="start" x="-226" y="-349.8" font-family="Times,serif" font-size="14.00">index</text>
<text text-anchor="start" x="-226" y="-334.8" font-family="Times,serif" font-size="14.00">new</text>
<text text-anchor="start" x="-226" y="-319.8" font-family="Times,serif" font-size="14.00">show</text>
<text text-anchor="start" x="-226" y="-304.8" font-family="Times,serif" font-size="14.00">update</text>
<polyline fill="none" stroke="black" points="-234,-297 -106,-297 "/>
<polyline fill="none" stroke="black" points="-234,-273 -106,-273 "/>
<text text-anchor="start" x="-226" y="-257.8" font-family="Times,serif" font-size="14.00">_layout</text>
<text text-anchor="start" x="-226" y="-242.8" font-family="Times,serif" font-size="14.00">professor_params</text>
</g>
<!-- CoursesController -->
<g id="node13" class="node"><title>CoursesController</title>
<path fill="none" stroke="black" d="M-60,-73C-60,-73 32,-73 32,-73 38,-73 44,-79 44,-85 44,-85 44,-289 44,-289 44,-295 38,-301 32,-301 32,-301 -60,-301 -60,-301 -66,-301 -72,-295 -72,-289 -72,-289 -72,-85 -72,-85 -72,-79 -66,-73 -60,-73"/>
<text text-anchor="middle" x="-14" y="-285.8" font-family="Times,serif" font-size="14.00">CoursesController</text>
<polyline fill="none" stroke="black" points="-72,-278 44,-278 "/>
<text text-anchor="start" x="-64" y="-262.8" font-family="Times,serif" font-size="14.00">course_professors</text>
<text text-anchor="start" x="-64" y="-247.8" font-family="Times,serif" font-size="14.00">create</text>
<text text-anchor="start" x="-64" y="-232.8" font-family="Times,serif" font-size="14.00">destroy</text>
<text text-anchor="start" x="-64" y="-217.8" font-family="Times,serif" font-size="14.00">edit</text>
<text text-anchor="start" x="-64" y="-202.8" font-family="Times,serif" font-size="14.00">index</text>
<text text-anchor="start" x="-64" y="-187.8" font-family="Times,serif" font-size="14.00">new</text>
<text text-anchor="start" x="-64" y="-172.8" font-family="Times,serif" font-size="14.00">show</text>
<text text-anchor="start" x="-64" y="-157.8" font-family="Times,serif" font-size="14.00">update</text>
<polyline fill="none" stroke="black" points="-72,-150 44,-150 "/>
<polyline fill="none" stroke="black" points="-72,-126 44,-126 "/>
<text text-anchor="start" x="-64" y="-110.8" font-family="Times,serif" font-size="14.00">_layout</text>
<text text-anchor="start" x="-64" y="-95.8" font-family="Times,serif" font-size="14.00">course_params</text>
<text text-anchor="start" x="-64" y="-80.8" font-family="Times,serif" font-size="14.00">set_course</text>
</g>
<!-- StudyMaterialsController -->
<g id="node14" class="node"><title>StudyMaterialsController</title>
<path fill="none" stroke="black" d="M-365.5,161.5C-365.5,161.5 -234.5,161.5 -234.5,161.5 -228.5,161.5 -222.5,155.5 -222.5,149.5 -222.5,149.5 -222.5,50.5 -222.5,50.5 -222.5,44.5 -228.5,38.5 -234.5,38.5 -234.5,38.5 -365.5,38.5 -365.5,38.5 -371.5,38.5 -377.5,44.5 -377.5,50.5 -377.5,50.5 -377.5,149.5 -377.5,149.5 -377.5,155.5 -371.5,161.5 -365.5,161.5"/>
<text text-anchor="middle" x="-300" y="53.7" font-family="Times,serif" font-size="14.00">StudyMaterialsController</text>
<polyline fill="none" stroke="black" points="-377.5,61.5 -222.5,61.5 "/>
<text text-anchor="start" x="-369.5" y="76.7" font-family="Times,serif" font-size="14.00">create</text>
<text text-anchor="start" x="-369.5" y="91.7" font-family="Times,serif" font-size="14.00">new</text>
<polyline fill="none" stroke="black" points="-377.5,99.5 -222.5,99.5 "/>
<polyline fill="none" stroke="black" points="-377.5,123.5 -222.5,123.5 "/>
<text text-anchor="start" x="-369.5" y="138.7" font-family="Times,serif" font-size="14.00">_layout</text>
<text text-anchor="start" x="-369.5" y="153.7" font-family="Times,serif" font-size="14.00">study_material_params</text>
</g>
<!-- ProfessorSubjectsController -->
<g id="node15" class="node"><title>ProfessorSubjectsController</title>
<path fill="none" stroke="black" d="M156,143.5C156,143.5 354,143.5 354,143.5 360,143.5 366,137.5 366,131.5 366,131.5 366,32.5 366,32.5 366,26.5 360,20.5 354,20.5 354,20.5 156,20.5 156,20.5 150,20.5 144,26.5 144,32.5 144,32.5 144,131.5 144,131.5 144,137.5 150,143.5 156,143.5"/>
<text text-anchor="middle" x="255" y="35.7" font-family="Times,serif" font-size="14.00">ProfessorSubjectsController</text>
<polyline fill="none" stroke="black" points="144,43.5 366,43.5 "/>
<text text-anchor="start" x="152" y="58.7" font-family="Times,serif" font-size="14.00">require_user</text>
<text text-anchor="start" x="152" y="73.7" font-family="Times,serif" font-size="14.00">show</text>
<text text-anchor="start" x="152" y="88.7" font-family="Times,serif" font-size="14.00">update_user_professor_subject_rating</text>
<polyline fill="none" stroke="black" points="144,96.5 366,96.5 "/>
<polyline fill="none" stroke="black" points="144,120.5 366,120.5 "/>
<text text-anchor="start" x="152" y="135.7" font-family="Times,serif" font-size="14.00">_layout</text>
</g>
<!-- SubjectsController -->
<g id="node16" class="node"><title>SubjectsController</title>
<path fill="none" stroke="black" d="M84,-234.5C84,-234.5 178,-234.5 178,-234.5 184,-234.5 190,-240.5 190,-246.5 190,-246.5 190,-435.5 190,-435.5 190,-441.5 184,-447.5 178,-447.5 178,-447.5 84,-447.5 84,-447.5 78,-447.5 72,-441.5 72,-435.5 72,-435.5 72,-246.5 72,-246.5 72,-240.5 78,-234.5 84,-234.5"/>
<text text-anchor="middle" x="131" y="-432.3" font-family="Times,serif" font-size="14.00">SubjectsController</text>
<polyline fill="none" stroke="black" points="72,-424.5 190,-424.5 "/>
<text text-anchor="start" x="80" y="-409.3" font-family="Times,serif" font-size="14.00">create</text>
<text text-anchor="start" x="80" y="-394.3" font-family="Times,serif" font-size="14.00">destroy</text>
<text text-anchor="start" x="80" y="-379.3" font-family="Times,serif" font-size="14.00">edit</text>
<text text-anchor="start" x="80" y="-364.3" font-family="Times,serif" font-size="14.00">index</text>
<text text-anchor="start" x="80" y="-349.3" font-family="Times,serif" font-size="14.00">new</text>
<text text-anchor="start" x="80" y="-334.3" font-family="Times,serif" font-size="14.00">show</text>
<text text-anchor="start" x="80" y="-319.3" font-family="Times,serif" font-size="14.00">update</text>
<polyline fill="none" stroke="black" points="72,-311.5 190,-311.5 "/>
<polyline fill="none" stroke="black" points="72,-287.5 190,-287.5 "/>
<text text-anchor="start" x="80" y="-272.3" font-family="Times,serif" font-size="14.00">_layout</text>
<text text-anchor="start" x="80" y="-257.3" font-family="Times,serif" font-size="14.00">set_subject</text>
<text text-anchor="start" x="80" y="-242.3" font-family="Times,serif" font-size="14.00">subject_params</text>
</g>
<!-- MainController -->
<g id="node17" class="node"><title>MainController</title>
<path fill="none" stroke="black" d="M-312,-0C-312,-0 -200,-0 -200,-0 -194,-0 -188,-6 -188,-12 -188,-12 -188,-156 -188,-156 -188,-162 -194,-168 -200,-168 -200,-168 -312,-168 -312,-168 -318,-168 -324,-162 -324,-156 -324,-156 -324,-12 -324,-12 -324,-6 -318,-0 -312,-0"/>
<text text-anchor="middle" x="-256" y="-152.8" font-family="Times,serif" font-size="14.00">MainController</text>
<polyline fill="none" stroke="black" points="-324,-145 -188,-145 "/>
<text text-anchor="start" x="-316" y="-129.8" font-family="Times,serif" font-size="14.00">clean_user_schedule</text>
<text text-anchor="start" x="-316" y="-114.8" font-family="Times,serif" font-size="14.00">index</text>
<text text-anchor="start" x="-316" y="-99.8" font-family="Times,serif" font-size="14.00">schedule</text>
<text text-anchor="start" x="-316" y="-84.8" font-family="Times,serif" font-size="14.00">search_subject</text>
<text text-anchor="start" x="-316" y="-69.8" font-family="Times,serif" font-size="14.00">update_user_schedule</text>
<polyline fill="none" stroke="black" points="-324,-62 -188,-62 "/>
<polyline fill="none" stroke="black" points="-324,-38 -188,-38 "/>
<text text-anchor="start" x="-316" y="-22.8" font-family="Times,serif" font-size="14.00">_layout</text>
<text text-anchor="start" x="-316" y="-7.8" font-family="Times,serif" font-size="14.00">require_current_user</text>
</g>
<!-- DepartmentController -->
<g id="node18" class="node"><title>DepartmentController</title>
<path fill="none" stroke="black" d="M408.5,-145C408.5,-145 521.5,-145 521.5,-145 527.5,-145 533.5,-151 533.5,-157 533.5,-157 533.5,-241 533.5,-241 533.5,-247 527.5,-253 521.5,-253 521.5,-253 408.5,-253 408.5,-253 402.5,-253 396.5,-247 396.5,-241 396.5,-241 396.5,-157 396.5,-157 396.5,-151 402.5,-145 408.5,-145"/>
<text text-anchor="middle" x="465" y="-237.8" font-family="Times,serif" font-size="14.00">DepartmentController</text>
<polyline fill="none" stroke="black" points="396.5,-230 533.5,-230 "/>
<text text-anchor="start" x="404.5" y="-214.8" font-family="Times,serif" font-size="14.00">index</text>
<text text-anchor="start" x="404.5" y="-199.8" font-family="Times,serif" font-size="14.00">show</text>
<polyline fill="none" stroke="black" points="396.5,-192 533.5,-192 "/>
<polyline fill="none" stroke="black" points="396.5,-168 533.5,-168 "/>
<text text-anchor="start" x="404.5" y="-152.8" font-family="Times,serif" font-size="14.00">_layout</text>
</g>
</g>
</svg>
