<?xml version="1.0" encoding="UTF-8" standalone="no"?>
<!DOCTYPE svg PUBLIC "-//W3C//DTD SVG 1.1//EN"
 "http://www.w3.org/Graphics/SVG/1.1/DTD/svg11.dtd">
<!-- Generated by graphviz version 2.38.0 (20140413.2041)
 -->
<!-- Title: models_diagram Pages: 1 -->
<svg width="1371pt" height="1723pt"
 viewBox="0.00 0.00 1371.00 1723.00" xmlns="http://www.w3.org/2000/svg" xmlns:xlink="http://www.w3.org/1999/xlink">
<g id="graph0" class="graph" transform="scale(1 1) rotate(0) translate(4 1719)">
<title>models_diagram</title>
<polygon fill="none" stroke="none" points="-4,4 -4,-1719 1367,-1719 1367,4 -4,4"/>
<!-- _diagram_info -->
<g id="node1" class="node"><title>_diagram_info</title>
<text text-anchor="start" x="57" y="-1678.6" font-family="Times,serif" font-size="13.00">Models diagram</text>
<text text-anchor="start" x="57" y="-1664.6" font-family="Times,serif" font-size="13.00">Date: Jul 08 2019 &#45; 21:45</text>
<text text-anchor="start" x="57" y="-1650.6" font-family="Times,serif" font-size="13.00">Migration version: 20190627152737</text>
<text text-anchor="start" x="57" y="-1636.6" font-family="Times,serif" font-size="13.00">Generated by RailRoady 1.5.3</text>
<text text-anchor="start" x="57" y="-1622.6" font-family="Times,serif" font-size="13.00">http://railroady.prestonlee.com</text>
</g>
<!-- Department -->
<g id="node2" class="node"><title>Department</title>
<path fill="none" stroke="black" d="M293,-1593.5C293,-1593.5 513,-1593.5 513,-1593.5 519,-1593.5 525,-1599.5 525,-1605.5 525,-1605.5 525,-1702.5 525,-1702.5 525,-1708.5 519,-1714.5 513,-1714.5 513,-1714.5 293,-1714.5 293,-1714.5 287,-1714.5 281,-1708.5 281,-1702.5 281,-1702.5 281,-1605.5 281,-1605.5 281,-1599.5 287,-1593.5 293,-1593.5"/>
<text text-anchor="middle" x="403" y="-1699.3" font-family="Times,serif" font-size="14.00">Department</text>
<polyline fill="none" stroke="black" points="281,-1691.5 525,-1691.5 "/>
<text text-anchor="start" x="289" y="-1676.3" font-family="Times,serif" font-size="14.00">id :bigint</text>
<text text-anchor="start" x="289" y="-1661.3" font-family="Times,serif" font-size="14.00">name :character varying</text>
<text text-anchor="start" x="289" y="-1646.3" font-family="Times,serif" font-size="14.00">code :character varying</text>
<text text-anchor="start" x="289" y="-1631.3" font-family="Times,serif" font-size="14.00">initial :character varying</text>
<text text-anchor="start" x="289" y="-1616.3" font-family="Times,serif" font-size="14.00">created_at :timestamp without time zone</text>
<text text-anchor="start" x="289" y="-1601.3" font-family="Times,serif" font-size="14.00">updated_at :timestamp without time zone</text>
</g>
<!-- Professor -->
<g id="node10" class="node"><title>Professor</title>
<path fill="none" stroke="black" d="M399,-1434.5C399,-1434.5 619,-1434.5 619,-1434.5 625,-1434.5 631,-1440.5 631,-1446.5 631,-1446.5 631,-1543.5 631,-1543.5 631,-1549.5 625,-1555.5 619,-1555.5 619,-1555.5 399,-1555.5 399,-1555.5 393,-1555.5 387,-1549.5 387,-1543.5 387,-1543.5 387,-1446.5 387,-1446.5 387,-1440.5 393,-1434.5 399,-1434.5"/>
<text text-anchor="middle" x="509" y="-1540.3" font-family="Times,serif" font-size="14.00">Professor</text>
<polyline fill="none" stroke="black" points="387,-1532.5 631,-1532.5 "/>
<text text-anchor="start" x="395" y="-1517.3" font-family="Times,serif" font-size="14.00">id :bigint</text>
<text text-anchor="start" x="395" y="-1502.3" font-family="Times,serif" font-size="14.00">name :character varying</text>
<text text-anchor="start" x="395" y="-1487.3" font-family="Times,serif" font-size="14.00">created_at :timestamp without time zone</text>
<text text-anchor="start" x="395" y="-1472.3" font-family="Times,serif" font-size="14.00">updated_at :timestamp without time zone</text>
<text text-anchor="start" x="395" y="-1457.3" font-family="Times,serif" font-size="14.00">courses_id :bigint</text>
<text text-anchor="start" x="395" y="-1442.3" font-family="Times,serif" font-size="14.00">departments_id :bigint</text>
</g>
<!-- Department&#45;&gt;Professor -->
<g id="edge2" class="edge"><title>Department&#45;&gt;Professor</title>
<path fill="none" stroke="#b82d0d" d="M447.892,-1586.51C452.867,-1579.14 457.939,-1571.63 462.928,-1564.24"/>
<ellipse fill="none" stroke="#b82d0d" cx="445.615" cy="-1589.88" rx="4.00002" ry="4.00002"/>
<polygon fill="#b82d0d" stroke="#b82d0d" points="463.14,-1563.92 472.465,-1558.15 465.938,-1559.78 468.736,-1555.64 468.736,-1555.64 468.736,-1555.64 465.938,-1559.78 465.006,-1553.12 463.14,-1563.92 463.14,-1563.92"/>
</g>
<!-- Course -->
<g id="node12" class="node"><title>Course</title>
<path fill="none" stroke="black" d="M249,-1200.5C249,-1200.5 469,-1200.5 469,-1200.5 475,-1200.5 481,-1206.5 481,-1212.5 481,-1212.5 481,-1384.5 481,-1384.5 481,-1390.5 475,-1396.5 469,-1396.5 469,-1396.5 249,-1396.5 249,-1396.5 243,-1396.5 237,-1390.5 237,-1384.5 237,-1384.5 237,-1212.5 237,-1212.5 237,-1206.5 243,-1200.5 249,-1200.5"/>
<text text-anchor="middle" x="359" y="-1381.3" font-family="Times,serif" font-size="14.00">Course</text>
<polyline fill="none" stroke="black" points="237,-1373.5 481,-1373.5 "/>
<text text-anchor="start" x="245" y="-1358.3" font-family="Times,serif" font-size="14.00">id :bigint</text>
<text text-anchor="start" x="245" y="-1343.3" font-family="Times,serif" font-size="14.00">kind :character varying</text>
<text text-anchor="start" x="245" y="-1328.3" font-family="Times,serif" font-size="14.00">code :integer</text>
<text text-anchor="start" x="245" y="-1313.3" font-family="Times,serif" font-size="14.00">name :character varying</text>
<text text-anchor="start" x="245" y="-1298.3" font-family="Times,serif" font-size="14.00">turn :character varying</text>
<text text-anchor="start" x="245" y="-1283.3" font-family="Times,serif" font-size="14.00">classification :integer</text>
<text text-anchor="start" x="245" y="-1268.3" font-family="Times,serif" font-size="14.00">created_at :timestamp without time zone</text>
<text text-anchor="start" x="245" y="-1253.3" font-family="Times,serif" font-size="14.00">updated_at :timestamp without time zone</text>
<text text-anchor="start" x="245" y="-1238.3" font-family="Times,serif" font-size="14.00">opcode :integer</text>
<text text-anchor="start" x="245" y="-1223.3" font-family="Times,serif" font-size="14.00">professors_id :bigint</text>
<text text-anchor="start" x="245" y="-1208.3" font-family="Times,serif" font-size="14.00">departments_id :bigint</text>
</g>
<!-- Department&#45;&gt;Course -->
<g id="edge1" class="edge"><title>Department&#45;&gt;Course</title>
<path fill="none" stroke="#236d5e" d="M383.964,-1585.5C381.669,-1575.66 379.582,-1565.61 378,-1556 369.979,-1507.25 365.342,-1452.74 362.662,-1406.54"/>
<ellipse fill="none" stroke="#236d5e" cx="384.91" cy="-1589.44" rx="4.00001" ry="4.00001"/>
<polygon fill="#236d5e" stroke="#236d5e" points="362.66,-1406.49 366.597,-1396.26 362.382,-1401.5 362.104,-1396.51 362.104,-1396.51 362.104,-1396.51 362.382,-1401.5 357.611,-1396.76 362.66,-1406.49 362.66,-1406.49"/>
</g>
<!-- ProfessorSubject -->
<g id="node3" class="node"><title>ProfessorSubject</title>
<path fill="none" stroke="black" d="M1000,-1245.5C1000,-1245.5 1220,-1245.5 1220,-1245.5 1226,-1245.5 1232,-1251.5 1232,-1257.5 1232,-1257.5 1232,-1339.5 1232,-1339.5 1232,-1345.5 1226,-1351.5 1220,-1351.5 1220,-1351.5 1000,-1351.5 1000,-1351.5 994,-1351.5 988,-1345.5 988,-1339.5 988,-1339.5 988,-1257.5 988,-1257.5 988,-1251.5 994,-1245.5 1000,-1245.5"/>
<text text-anchor="middle" x="1110" y="-1336.3" font-family="Times,serif" font-size="14.00">ProfessorSubject</text>
<polyline fill="none" stroke="black" points="988,-1328.5 1232,-1328.5 "/>
<text text-anchor="start" x="996" y="-1313.3" font-family="Times,serif" font-size="14.00">id :bigint</text>
<text text-anchor="start" x="996" y="-1298.3" font-family="Times,serif" font-size="14.00">professor_id :bigint</text>
<text text-anchor="start" x="996" y="-1283.3" font-family="Times,serif" font-size="14.00">subject_id :bigint</text>
<text text-anchor="start" x="996" y="-1268.3" font-family="Times,serif" font-size="14.00">created_at :timestamp without time zone</text>
<text text-anchor="start" x="996" y="-1253.3" font-family="Times,serif" font-size="14.00">updated_at :timestamp without time zone</text>
</g>
<!-- ProfessorSubjectUser -->
<g id="node6" class="node"><title>ProfessorSubjectUser</title>
<path fill="none" stroke="black" d="M1085,-574C1085,-574 1305,-574 1305,-574 1311,-574 1317,-580 1317,-586 1317,-586 1317,-713 1317,-713 1317,-719 1311,-725 1305,-725 1305,-725 1085,-725 1085,-725 1079,-725 1073,-719 1073,-713 1073,-713 1073,-586 1073,-586 1073,-580 1079,-574 1085,-574"/>
<text text-anchor="middle" x="1195" y="-709.8" font-family="Times,serif" font-size="14.00">ProfessorSubjectUser</text>
<polyline fill="none" stroke="black" points="1073,-702 1317,-702 "/>
<text text-anchor="start" x="1081" y="-686.8" font-family="Times,serif" font-size="14.00">id :bigint</text>
<text text-anchor="start" x="1081" y="-671.8" font-family="Times,serif" font-size="14.00">user_id :bigint</text>
<text text-anchor="start" x="1081" y="-656.8" font-family="Times,serif" font-size="14.00">professor_subject_id :bigint</text>
<text text-anchor="start" x="1081" y="-641.8" font-family="Times,serif" font-size="14.00">trabalhos :integer</text>
<text text-anchor="start" x="1081" y="-626.8" font-family="Times,serif" font-size="14.00">provas :integer</text>
<text text-anchor="start" x="1081" y="-611.8" font-family="Times,serif" font-size="14.00">tarefas :integer</text>
<text text-anchor="start" x="1081" y="-596.8" font-family="Times,serif" font-size="14.00">created_at :timestamp without time zone</text>
<text text-anchor="start" x="1081" y="-581.8" font-family="Times,serif" font-size="14.00">updated_at :timestamp without time zone</text>
</g>
<!-- ProfessorSubject&#45;&gt;ProfessorSubjectUser -->
<g id="edge4" class="edge"><title>ProfessorSubject&#45;&gt;ProfessorSubjectUser</title>
<path fill="none" stroke="#be9c25" d="M1117.89,-1237.43C1133.08,-1121.82 1166.41,-868.102 1183.86,-735.315"/>
<ellipse fill="none" stroke="#be9c25" cx="1117.37" cy="-1241.41" rx="4.00001" ry="4.00001"/>
<polygon fill="#be9c25" stroke="#be9c25" points="1183.89,-735.103 1189.65,-725.774 1184.54,-730.145 1185.19,-725.188 1185.19,-725.188 1185.19,-725.188 1184.54,-730.145 1180.73,-724.602 1183.89,-735.103 1183.89,-735.103"/>
</g>
<!-- User -->
<g id="node13" class="node"><title>User</title>
<path fill="none" stroke="black" d="M800.5,-876.5C800.5,-876.5 1089.5,-876.5 1089.5,-876.5 1095.5,-876.5 1101.5,-882.5 1101.5,-888.5 1101.5,-888.5 1101.5,-1150.5 1101.5,-1150.5 1101.5,-1156.5 1095.5,-1162.5 1089.5,-1162.5 1089.5,-1162.5 800.5,-1162.5 800.5,-1162.5 794.5,-1162.5 788.5,-1156.5 788.5,-1150.5 788.5,-1150.5 788.5,-888.5 788.5,-888.5 788.5,-882.5 794.5,-876.5 800.5,-876.5"/>
<text text-anchor="middle" x="945" y="-1147.3" font-family="Times,serif" font-size="14.00">User</text>
<polyline fill="none" stroke="black" points="788.5,-1139.5 1101.5,-1139.5 "/>
<text text-anchor="start" x="796.5" y="-1124.3" font-family="Times,serif" font-size="14.00">id :bigint</text>
<text text-anchor="start" x="796.5" y="-1109.3" font-family="Times,serif" font-size="14.00">email :character varying</text>
<text text-anchor="start" x="796.5" y="-1094.3" font-family="Times,serif" font-size="14.00">encrypted_password :character varying</text>
<text text-anchor="start" x="796.5" y="-1079.3" font-family="Times,serif" font-size="14.00">first_name :character varying</text>
<text text-anchor="start" x="796.5" y="-1064.3" font-family="Times,serif" font-size="14.00">last_name :character varying</text>
<text text-anchor="start" x="796.5" y="-1049.3" font-family="Times,serif" font-size="14.00">matricula :character varying</text>
<text text-anchor="start" x="796.5" y="-1034.3" font-family="Times,serif" font-size="14.00">reset_password_token :character varying</text>
<text text-anchor="start" x="796.5" y="-1019.3" font-family="Times,serif" font-size="14.00">reset_password_sent_at :timestamp without time zone</text>
<text text-anchor="start" x="796.5" y="-1004.3" font-family="Times,serif" font-size="14.00">remember_created_at :timestamp without time zone</text>
<text text-anchor="start" x="796.5" y="-989.3" font-family="Times,serif" font-size="14.00">sign_in_count :integer</text>
<text text-anchor="start" x="796.5" y="-974.3" font-family="Times,serif" font-size="14.00">current_sign_in_at :timestamp without time zone</text>
<text text-anchor="start" x="796.5" y="-959.3" font-family="Times,serif" font-size="14.00">last_sign_in_at :timestamp without time zone</text>
<text text-anchor="start" x="796.5" y="-944.3" font-family="Times,serif" font-size="14.00">current_sign_in_ip :inet</text>
<text text-anchor="start" x="796.5" y="-929.3" font-family="Times,serif" font-size="14.00">last_sign_in_ip :inet</text>
<text text-anchor="start" x="796.5" y="-914.3" font-family="Times,serif" font-size="14.00">created_at :timestamp without time zone</text>
<text text-anchor="start" x="796.5" y="-899.3" font-family="Times,serif" font-size="14.00">updated_at :timestamp without time zone</text>
<text text-anchor="start" x="796.5" y="-884.3" font-family="Times,serif" font-size="14.00">course_id :bigint</text>
</g>
<!-- ProfessorSubject&#45;&gt;User -->
<g id="edge5" class="edge"><title>ProfessorSubject&#45;&gt;User</title>
<path fill="none" stroke="#019564" d="M1073.68,-1236.53C1062.07,-1217.03 1048.64,-1194.49 1034.94,-1171.5"/>
<polygon fill="#019564" stroke="#019564" points="1073.85,-1236.81 1075.1,-1247.7 1076.41,-1241.1 1078.96,-1245.4 1078.96,-1245.4 1078.96,-1245.4 1076.41,-1241.1 1082.83,-1243.1 1073.85,-1236.81 1073.85,-1236.81"/>
<polygon fill="#019564" stroke="#019564" points="1034.8,-1171.26 1033.55,-1160.36 1032.24,-1166.96 1029.68,-1162.67 1029.68,-1162.67 1029.68,-1162.67 1032.24,-1166.96 1025.82,-1164.97 1034.8,-1171.26 1034.8,-1171.26"/>
</g>
<!-- Comment -->
<g id="node15" class="node"><title>Comment</title>
<path fill="none" stroke="black" d="M920,-174.5C920,-174.5 1140,-174.5 1140,-174.5 1146,-174.5 1152,-180.5 1152,-186.5 1152,-186.5 1152,-313.5 1152,-313.5 1152,-319.5 1146,-325.5 1140,-325.5 1140,-325.5 920,-325.5 920,-325.5 914,-325.5 908,-319.5 908,-313.5 908,-313.5 908,-186.5 908,-186.5 908,-180.5 914,-174.5 920,-174.5"/>
<text text-anchor="middle" x="1030" y="-310.3" font-family="Times,serif" font-size="14.00">Comment</text>
<polyline fill="none" stroke="black" points="908,-302.5 1152,-302.5 "/>
<text text-anchor="start" x="916" y="-287.3" font-family="Times,serif" font-size="14.00">id :bigint</text>
<text text-anchor="start" x="916" y="-272.3" font-family="Times,serif" font-size="14.00">content :text</text>
<text text-anchor="start" x="916" y="-257.3" font-family="Times,serif" font-size="14.00">created_at :timestamp without time zone</text>
<text text-anchor="start" x="916" y="-242.3" font-family="Times,serif" font-size="14.00">updated_at :timestamp without time zone</text>
<text text-anchor="start" x="916" y="-227.3" font-family="Times,serif" font-size="14.00">user_id :bigint</text>
<text text-anchor="start" x="916" y="-212.3" font-family="Times,serif" font-size="14.00">professor_subject_id :bigint</text>
<text text-anchor="start" x="916" y="-197.3" font-family="Times,serif" font-size="14.00">subject_id :bigint</text>
<text text-anchor="start" x="916" y="-182.3" font-family="Times,serif" font-size="14.00">topic_id :bigint</text>
</g>
<!-- ProfessorSubject&#45;&gt;Comment -->
<g id="edge3" class="edge"><title>ProfessorSubject&#45;&gt;Comment</title>
<path fill="none" stroke="#aa5be1" d="M1198.13,-1240.56C1264.86,-1191.75 1345,-1114.52 1345,-1020.5 1345,-1020.5 1345,-1020.5 1345,-430.5 1345,-340.562 1248.29,-295.319 1162.02,-272.779"/>
<ellipse fill="none" stroke="#aa5be1" cx="1194.55" cy="-1243.15" rx="4.00002" ry="4.00002"/>
<polygon fill="#aa5be1" stroke="#aa5be1" points="1161.79,-272.722 1153.2,-265.91 1156.94,-271.498 1152.09,-270.273 1152.09,-270.273 1152.09,-270.273 1156.94,-271.498 1150.99,-274.636 1161.79,-272.722 1161.79,-272.722"/>
</g>
<!-- Schedule -->
<g id="node4" class="node"><title>Schedule</title>
<path fill="none" stroke="black" d="M587,-551.5C587,-551.5 807,-551.5 807,-551.5 813,-551.5 819,-557.5 819,-563.5 819,-563.5 819,-735.5 819,-735.5 819,-741.5 813,-747.5 807,-747.5 807,-747.5 587,-747.5 587,-747.5 581,-747.5 575,-741.5 575,-735.5 575,-735.5 575,-563.5 575,-563.5 575,-557.5 581,-551.5 587,-551.5"/>
<text text-anchor="middle" x="697" y="-732.3" font-family="Times,serif" font-size="14.00">Schedule</text>
<polyline fill="none" stroke="black" points="575,-724.5 819,-724.5 "/>
<text text-anchor="start" x="583" y="-709.3" font-family="Times,serif" font-size="14.00">id :bigint</text>
<text text-anchor="start" x="583" y="-694.3" font-family="Times,serif" font-size="14.00">time_8 :character varying</text>
<text text-anchor="start" x="583" y="-679.3" font-family="Times,serif" font-size="14.00">time_10 :character varying</text>
<text text-anchor="start" x="583" y="-664.3" font-family="Times,serif" font-size="14.00">time_12 :character varying</text>
<text text-anchor="start" x="583" y="-649.3" font-family="Times,serif" font-size="14.00">time_14 :character varying</text>
<text text-anchor="start" x="583" y="-634.3" font-family="Times,serif" font-size="14.00">time_16 :character varying</text>
<text text-anchor="start" x="583" y="-619.3" font-family="Times,serif" font-size="14.00">time_19 :character varying</text>
<text text-anchor="start" x="583" y="-604.3" font-family="Times,serif" font-size="14.00">time_21 :character varying</text>
<text text-anchor="start" x="583" y="-589.3" font-family="Times,serif" font-size="14.00">user_id :bigint</text>
<text text-anchor="start" x="583" y="-574.3" font-family="Times,serif" font-size="14.00">created_at :timestamp without time zone</text>
<text text-anchor="start" x="583" y="-559.3" font-family="Times,serif" font-size="14.00">updated_at :timestamp without time zone</text>
</g>
<!-- Subject -->
<g id="node16" class="node"><title>Subject</title>
<path fill="none" stroke="black" d="M437,-363.5C437,-363.5 657,-363.5 657,-363.5 663,-363.5 669,-369.5 669,-375.5 669,-375.5 669,-487.5 669,-487.5 669,-493.5 663,-499.5 657,-499.5 657,-499.5 437,-499.5 437,-499.5 431,-499.5 425,-493.5 425,-487.5 425,-487.5 425,-375.5 425,-375.5 425,-369.5 431,-363.5 437,-363.5"/>
<text text-anchor="middle" x="547" y="-484.3" font-family="Times,serif" font-size="14.00">Subject</text>
<polyline fill="none" stroke="black" points="425,-476.5 669,-476.5 "/>
<text text-anchor="start" x="433" y="-461.3" font-family="Times,serif" font-size="14.00">id :bigint</text>
<text text-anchor="start" x="433" y="-446.3" font-family="Times,serif" font-size="14.00">code :integer</text>
<text text-anchor="start" x="433" y="-431.3" font-family="Times,serif" font-size="14.00">name :character varying</text>
<text text-anchor="start" x="433" y="-416.3" font-family="Times,serif" font-size="14.00">credits :character varying</text>
<text text-anchor="start" x="433" y="-401.3" font-family="Times,serif" font-size="14.00">area :character varying</text>
<text text-anchor="start" x="433" y="-386.3" font-family="Times,serif" font-size="14.00">created_at :timestamp without time zone</text>
<text text-anchor="start" x="433" y="-371.3" font-family="Times,serif" font-size="14.00">updated_at :timestamp without time zone</text>
</g>
<!-- Schedule&#45;&gt;Subject -->
<g id="edge6" class="edge"><title>Schedule&#45;&gt;Subject</title>
<path fill="none" stroke="#191dda" d="M623.474,-542.622C615.358,-530.936 607.22,-519.217 599.439,-508.012"/>
<polygon fill="#191dda" stroke="#191dda" points="623.756,-543.028 625.764,-553.809 626.608,-547.135 629.46,-551.242 629.46,-551.242 629.46,-551.242 626.608,-547.135 633.156,-548.675 623.756,-543.028 623.756,-543.028"/>
<polygon fill="#191dda" stroke="#191dda" points="599.269,-507.767 597.261,-496.987 596.417,-503.66 593.565,-499.554 593.565,-499.554 593.565,-499.554 596.417,-503.66 589.869,-502.12 599.269,-507.767 599.269,-507.767"/>
</g>
<!-- StudyMaterial -->
<g id="node5" class="node"><title>StudyMaterial</title>
<path fill="none" stroke="black" d="M620,-182C620,-182 840,-182 840,-182 846,-182 852,-188 852,-194 852,-194 852,-306 852,-306 852,-312 846,-318 840,-318 840,-318 620,-318 620,-318 614,-318 608,-312 608,-306 608,-306 608,-194 608,-194 608,-188 614,-182 620,-182"/>
<text text-anchor="middle" x="730" y="-302.8" font-family="Times,serif" font-size="14.00">StudyMaterial</text>
<polyline fill="none" stroke="black" points="608,-295 852,-295 "/>
<text text-anchor="start" x="616" y="-279.8" font-family="Times,serif" font-size="14.00">id :bigint</text>
<text text-anchor="start" x="616" y="-264.8" font-family="Times,serif" font-size="14.00">name :character varying</text>
<text text-anchor="start" x="616" y="-249.8" font-family="Times,serif" font-size="14.00">created_at :timestamp without time zone</text>
<text text-anchor="start" x="616" y="-234.8" font-family="Times,serif" font-size="14.00">updated_at :timestamp without time zone</text>
<text text-anchor="start" x="616" y="-219.8" font-family="Times,serif" font-size="14.00">subject_id :bigint</text>
<text text-anchor="start" x="616" y="-204.8" font-family="Times,serif" font-size="14.00">description :character varying</text>
<text text-anchor="start" x="616" y="-189.8" font-family="Times,serif" font-size="14.00">user_id :bigint</text>
</g>
<!-- ApplicationRecord -->
<g id="node7" class="node"><title>ApplicationRecord</title>
<ellipse fill="none" stroke="black" cx="620" cy="-1654" rx="77.1866" ry="18"/>
<text text-anchor="middle" x="620" y="-1650.3" font-family="Times,serif" font-size="14.00">ApplicationRecord</text>
</g>
<!-- Rating -->
<g id="node8" class="node"><title>Rating</title>
<path fill="none" stroke="black" d="M358,-182C358,-182 578,-182 578,-182 584,-182 590,-188 590,-194 590,-194 590,-306 590,-306 590,-312 584,-318 578,-318 578,-318 358,-318 358,-318 352,-318 346,-312 346,-306 346,-306 346,-194 346,-194 346,-188 352,-182 358,-182"/>
<text text-anchor="middle" x="468" y="-302.8" font-family="Times,serif" font-size="14.00">Rating</text>
<polyline fill="none" stroke="black" points="346,-295 590,-295 "/>
<text text-anchor="start" x="354" y="-279.8" font-family="Times,serif" font-size="14.00">id :bigint</text>
<text text-anchor="start" x="354" y="-264.8" font-family="Times,serif" font-size="14.00">subject_id :bigint</text>
<text text-anchor="start" x="354" y="-249.8" font-family="Times,serif" font-size="14.00">trabalhos :integer</text>
<text text-anchor="start" x="354" y="-234.8" font-family="Times,serif" font-size="14.00">provas :integer</text>
<text text-anchor="start" x="354" y="-219.8" font-family="Times,serif" font-size="14.00">tarefas :integer</text>
<text text-anchor="start" x="354" y="-204.8" font-family="Times,serif" font-size="14.00">created_at :timestamp without time zone</text>
<text text-anchor="start" x="354" y="-189.8" font-family="Times,serif" font-size="14.00">updated_at :timestamp without time zone</text>
</g>
<!-- CourseSubject -->
<g id="node9" class="node"><title>CourseSubject</title>
<path fill="none" stroke="black" d="M96,-189.5C96,-189.5 316,-189.5 316,-189.5 322,-189.5 328,-195.5 328,-201.5 328,-201.5 328,-298.5 328,-298.5 328,-304.5 322,-310.5 316,-310.5 316,-310.5 96,-310.5 96,-310.5 90,-310.5 84,-304.5 84,-298.5 84,-298.5 84,-201.5 84,-201.5 84,-195.5 90,-189.5 96,-189.5"/>
<text text-anchor="middle" x="206" y="-295.3" font-family="Times,serif" font-size="14.00">CourseSubject</text>
<polyline fill="none" stroke="black" points="84,-287.5 328,-287.5 "/>
<text text-anchor="start" x="92" y="-272.3" font-family="Times,serif" font-size="14.00">id :bigint</text>
<text text-anchor="start" x="92" y="-257.3" font-family="Times,serif" font-size="14.00">subject_id :bigint</text>
<text text-anchor="start" x="92" y="-242.3" font-family="Times,serif" font-size="14.00">course_id :bigint</text>
<text text-anchor="start" x="92" y="-227.3" font-family="Times,serif" font-size="14.00">kind :integer</text>
<text text-anchor="start" x="92" y="-212.3" font-family="Times,serif" font-size="14.00">created_at :timestamp without time zone</text>
<text text-anchor="start" x="92" y="-197.3" font-family="Times,serif" font-size="14.00">updated_at :timestamp without time zone</text>
</g>
<!-- Professor&#45;&gt;ProfessorSubject -->
<g id="edge8" class="edge"><title>Professor&#45;&gt;ProfessorSubject</title>
<path fill="none" stroke="#7f6a99" d="M639.041,-1451.92C739.33,-1419.46 877.468,-1374.75 978.197,-1342.16"/>
<ellipse fill="none" stroke="#7f6a99" cx="635.151" cy="-1453.17" rx="4.00001" ry="4.00001"/>
<polygon fill="#7f6a99" stroke="#7f6a99" points="978.311,-1342.12 989.211,-1343.32 983.069,-1340.58 987.826,-1339.04 987.826,-1339.04 987.826,-1339.04 983.069,-1340.58 986.44,-1334.76 978.311,-1342.12 978.311,-1342.12"/>
</g>
<!-- Professor&#45;&gt;Course -->
<g id="edge7" class="edge"><title>Professor&#45;&gt;Course</title>
<path fill="none" stroke="#3079e8" d="M451.511,-1427.8C445.172,-1419.8 438.659,-1411.48 432.163,-1403.1"/>
<ellipse fill="none" stroke="#3079e8" cx="454.206" cy="-1431.19" rx="4.00002" ry="4.00002"/>
<ellipse fill="#3079e8" stroke="#3079e8" cx="429.65" cy="-1399.85" rx="4.00002" ry="4.00002"/>
</g>
<!-- Professor&#45;&gt;Subject -->
<g id="edge9" class="edge"><title>Professor&#45;&gt;Subject</title>
<path fill="none" stroke="#4f8279" d="M509,-1424.22C509,-1387.17 509,-1340.86 509,-1299.5 509,-1299.5 509,-1299.5 509,-648.5 509,-601.892 517.688,-550.472 526.756,-509.497"/>
<polygon fill="#4f8279" stroke="#4f8279" points="509,-1424.41 504.5,-1434.41 509,-1429.41 509,-1434.41 509,-1434.41 509,-1434.41 509,-1429.41 513.5,-1434.41 509,-1424.41 509,-1424.41"/>
<polygon fill="#4f8279" stroke="#4f8279" points="526.792,-509.336 533.39,-500.577 527.897,-504.459 529.002,-499.583 529.002,-499.583 529.002,-499.583 527.897,-504.459 524.613,-498.589 526.792,-509.336 526.792,-509.336"/>
</g>
<!-- UserLikeComment -->
<g id="node11" class="node"><title>UserLikeComment</title>
<path fill="none" stroke="black" d="M1060,-8C1060,-8 1280,-8 1280,-8 1286,-8 1292,-14 1292,-20 1292,-20 1292,-117 1292,-117 1292,-123 1286,-129 1280,-129 1280,-129 1060,-129 1060,-129 1054,-129 1048,-123 1048,-117 1048,-117 1048,-20 1048,-20 1048,-14 1054,-8 1060,-8"/>
<text text-anchor="middle" x="1170" y="-113.8" font-family="Times,serif" font-size="14.00">UserLikeComment</text>
<polyline fill="none" stroke="black" points="1048,-106 1292,-106 "/>
<text text-anchor="start" x="1056" y="-90.8" font-family="Times,serif" font-size="14.00">id :bigint</text>
<text text-anchor="start" x="1056" y="-75.8" font-family="Times,serif" font-size="14.00">user_id :bigint</text>
<text text-anchor="start" x="1056" y="-60.8" font-family="Times,serif" font-size="14.00">comment_id :bigint</text>
<text text-anchor="start" x="1056" y="-45.8" font-family="Times,serif" font-size="14.00">like :boolean</text>
<text text-anchor="start" x="1056" y="-30.8" font-family="Times,serif" font-size="14.00">created_at :timestamp without time zone</text>
<text text-anchor="start" x="1056" y="-15.8" font-family="Times,serif" font-size="14.00">updated_at :timestamp without time zone</text>
</g>
<!-- Course&#45;&gt;CourseSubject -->
<g id="edge11" class="edge"><title>Course&#45;&gt;CourseSubject</title>
<path fill="none" stroke="#da23c9" d="M340.513,-1192.23C332.976,-1140.65 326,-1077.5 326,-1020.5 326,-1020.5 326,-1020.5 326,-430.5 326,-388.859 303.405,-349.557 277.823,-318.406"/>
<ellipse fill="none" stroke="#da23c9" cx="341.14" cy="-1196.45" rx="4.00001" ry="4.00001"/>
<polygon fill="#da23c9" stroke="#da23c9" points="277.73,-318.296 274.701,-307.757 274.499,-314.481 271.267,-310.665 271.267,-310.665 271.267,-310.665 274.499,-314.481 267.834,-313.574 277.73,-318.296 277.73,-318.296"/>
</g>
<!-- Course&#45;&gt;Professor -->
<g id="edge14" class="edge"><title>Course&#45;&gt;Professor</title>
<path fill="none" stroke="#efbabc" d="M445.638,-1403.1C452.065,-1411.48 458.377,-1419.8 464.38,-1427.8"/>
<ellipse fill="none" stroke="#efbabc" cx="443.142" cy="-1399.86" rx="4.00002" ry="4.00002"/>
<ellipse fill="#efbabc" stroke="#efbabc" cx="466.861" cy="-1431.12" rx="4.00002" ry="4.00002"/>
</g>
<!-- Course&#45;&gt;User -->
<g id="edge10" class="edge"><title>Course&#45;&gt;User</title>
<path fill="none" stroke="#46f278" d="M488.522,-1236.28C574.142,-1195.8 687.153,-1142.38 779.306,-1098.82"/>
<ellipse fill="none" stroke="#46f278" cx="484.748" cy="-1238.06" rx="4.00002" ry="4.00002"/>
<polygon fill="#46f278" stroke="#46f278" points="779.4,-1098.78 790.364,-1098.57 783.921,-1096.64 788.441,-1094.5 788.441,-1094.5 788.441,-1094.5 783.921,-1096.64 786.518,-1090.44 779.4,-1098.78 779.4,-1098.78"/>
</g>
<!-- Course&#45;&gt;Subject -->
<g id="edge12" class="edge"><title>Course&#45;&gt;Subject</title>
<path fill="none" stroke="#91c6b6" d="M365.094,-1189.92C376.585,-1036.42 408.645,-747.717 495,-518 496.096,-515.085 497.293,-512.16 498.572,-509.239"/>
<polygon fill="#91c6b6" stroke="#91c6b6" points="365.066,-1190.31 359.846,-1199.95 364.7,-1195.3 364.334,-1200.28 364.334,-1200.28 364.334,-1200.28 364.7,-1195.3 368.822,-1200.61 365.066,-1190.31 365.066,-1190.31"/>
<polygon fill="#91c6b6" stroke="#91c6b6" points="498.679,-509.008 506.988,-501.852 500.795,-504.478 502.911,-499.948 502.911,-499.948 502.911,-499.948 500.795,-504.478 498.833,-498.044 498.679,-509.008 498.679,-509.008"/>
</g>
<!-- Forum -->
<g id="node17" class="node"><title>Forum</title>
<path fill="none" stroke="black" d="M12,-766.5C12,-766.5 232,-766.5 232,-766.5 238,-766.5 244,-772.5 244,-778.5 244,-778.5 244,-845.5 244,-845.5 244,-851.5 238,-857.5 232,-857.5 232,-857.5 12,-857.5 12,-857.5 6,-857.5 0,-851.5 0,-845.5 0,-845.5 0,-778.5 0,-778.5 0,-772.5 6,-766.5 12,-766.5"/>
<text text-anchor="middle" x="122" y="-842.3" font-family="Times,serif" font-size="14.00">Forum</text>
<polyline fill="none" stroke="black" points="0,-834.5 244,-834.5 "/>
<text text-anchor="start" x="8" y="-819.3" font-family="Times,serif" font-size="14.00">id :bigint</text>
<text text-anchor="start" x="8" y="-804.3" font-family="Times,serif" font-size="14.00">course_id :bigint</text>
<text text-anchor="start" x="8" y="-789.3" font-family="Times,serif" font-size="14.00">created_at :timestamp without time zone</text>
<text text-anchor="start" x="8" y="-774.3" font-family="Times,serif" font-size="14.00">updated_at :timestamp without time zone</text>
</g>
<!-- Course&#45;&gt;Forum -->
<g id="edge13" class="edge"><title>Course&#45;&gt;Forum</title>
<path fill="none" stroke="#5a87b5" d="M307.835,-1192.9C258.381,-1091.8 185.507,-942.828 147.375,-864.873"/>
<ellipse fill="none" stroke="#5a87b5" cx="309.709" cy="-1196.73" rx="4.00002" ry="4.00002"/>
<ellipse fill="#5a87b5" stroke="#5a87b5" cx="145.552" cy="-861.148" rx="4.00002" ry="4.00002"/>
</g>
<!-- User&#45;&gt;Schedule -->
<g id="edge15" class="edge"><title>User&#45;&gt;Schedule</title>
<path fill="none" stroke="#399741" d="M840.98,-869.755C838.286,-865.8 835.622,-861.876 833,-858 810.414,-824.609 786.165,-787.898 764.487,-754.759"/>
<ellipse fill="none" stroke="#399741" cx="843.286" cy="-873.134" rx="4.00002" ry="4.00002"/>
<ellipse fill="#399741" stroke="#399741" cx="762.091" cy="-751.092" rx="4.00002" ry="4.00002"/>
</g>
<!-- User&#45;&gt;StudyMaterial -->
<g id="edge19" class="edge"><title>User&#45;&gt;StudyMaterial</title>
<path fill="none" stroke="#b88e2b" d="M874.257,-868.521C873.113,-864.999 872.024,-861.489 871,-858 832.186,-725.804 859.068,-685.228 828,-551 810.086,-473.602 781.027,-387.641 759.195,-327.646"/>
<ellipse fill="none" stroke="#b88e2b" cx="875.575" cy="-872.453" rx="4.00001" ry="4.00001"/>
<polygon fill="#b88e2b" stroke="#b88e2b" points="759.191,-327.636 759.981,-316.699 757.473,-322.941 755.755,-318.245 755.755,-318.245 755.755,-318.245 757.473,-322.941 751.529,-319.791 759.191,-327.636 759.191,-327.636"/>
</g>
<!-- User&#45;&gt;ProfessorSubjectUser -->
<g id="edge20" class="edge"><title>User&#45;&gt;ProfessorSubjectUser</title>
<path fill="none" stroke="#63a0bf" d="M1050.92,-869.787C1053.65,-865.823 1056.35,-861.888 1059,-858 1086.65,-817.483 1116.62,-771.95 1141.36,-733.882"/>
<ellipse fill="none" stroke="#63a0bf" cx="1048.57" cy="-873.192" rx="4.00002" ry="4.00002"/>
<polygon fill="#63a0bf" stroke="#63a0bf" points="1141.44,-733.765 1150.66,-727.829 1144.16,-729.571 1146.89,-725.378 1146.89,-725.378 1146.89,-725.378 1144.16,-729.571 1143.11,-722.927 1141.44,-733.765 1141.44,-733.765"/>
</g>
<!-- User&#45;&gt;UserLikeComment -->
<g id="edge16" class="edge"><title>User&#45;&gt;UserLikeComment</title>
<path fill="none" stroke="#c7cc39" d="M986.471,-868.461C997.02,-829.32 1008.15,-787.138 1018,-748 1039.94,-660.807 999.844,-613.992 1064,-551 1091.24,-524.25 1123.08,-561.925 1148,-533 1208.17,-463.166 1156.49,-418.071 1161,-326 1164.09,-262.788 1166.52,-190.763 1168.08,-139.162"/>
<ellipse fill="none" stroke="#c7cc39" cx="985.411" cy="-872.386" rx="4.00001" ry="4.00001"/>
<polygon fill="#c7cc39" stroke="#c7cc39" points="1168.08,-139.118 1172.87,-129.256 1168.23,-134.12 1168.37,-129.123 1168.37,-129.123 1168.37,-129.123 1168.23,-134.12 1163.88,-128.989 1168.08,-139.118 1168.08,-139.118"/>
</g>
<!-- Topic -->
<g id="node14" class="node"><title>Topic</title>
<path fill="none" stroke="black" d="M779,-0.5C779,-0.5 999,-0.5 999,-0.5 1005,-0.5 1011,-6.5 1011,-12.5 1011,-12.5 1011,-124.5 1011,-124.5 1011,-130.5 1005,-136.5 999,-136.5 999,-136.5 779,-136.5 779,-136.5 773,-136.5 767,-130.5 767,-124.5 767,-124.5 767,-12.5 767,-12.5 767,-6.5 773,-0.5 779,-0.5"/>
<text text-anchor="middle" x="889" y="-121.3" font-family="Times,serif" font-size="14.00">Topic</text>
<polyline fill="none" stroke="black" points="767,-113.5 1011,-113.5 "/>
<text text-anchor="start" x="775" y="-98.3" font-family="Times,serif" font-size="14.00">id :bigint</text>
<text text-anchor="start" x="775" y="-83.3" font-family="Times,serif" font-size="14.00">title :character varying</text>
<text text-anchor="start" x="775" y="-68.3" font-family="Times,serif" font-size="14.00">description :text</text>
<text text-anchor="start" x="775" y="-53.3" font-family="Times,serif" font-size="14.00">forum_id :bigint</text>
<text text-anchor="start" x="775" y="-38.3" font-family="Times,serif" font-size="14.00">created_at :timestamp without time zone</text>
<text text-anchor="start" x="775" y="-23.3" font-family="Times,serif" font-size="14.00">updated_at :timestamp without time zone</text>
<text text-anchor="start" x="775" y="-8.3" font-family="Times,serif" font-size="14.00">user_id :bigint</text>
</g>
<!-- User&#45;&gt;Topic -->
<g id="edge21" class="edge"><title>User&#45;&gt;Topic</title>
<path fill="none" stroke="#8460eb" d="M926.901,-868.249C926.587,-864.801 926.286,-861.381 926,-858 904.028,-597.883 894.269,-288.308 890.712,-146.889"/>
<ellipse fill="none" stroke="#8460eb" cx="927.285" cy="-872.355" rx="4" ry="4"/>
<polygon fill="#8460eb" stroke="#8460eb" points="890.705,-146.588 894.956,-136.48 890.581,-141.59 890.457,-136.591 890.457,-136.591 890.457,-136.591 890.581,-141.59 885.958,-136.703 890.705,-146.588 890.705,-146.588"/>
</g>
<!-- User&#45;&gt;Comment -->
<g id="edge17" class="edge"><title>User&#45;&gt;Comment</title>
<path fill="none" stroke="#d9f0f2" d="M934.075,-867.91C927.605,-734.163 925.872,-533.97 957,-363 958.564,-354.409 958.246,-351.884 962,-344 963.507,-340.834 965.127,-337.665 966.837,-334.51"/>
<ellipse fill="none" stroke="#d9f0f2" cx="934.289" cy="-872.228" rx="4" ry="4"/>
<polygon fill="#d9f0f2" stroke="#d9f0f2" points="966.927,-334.352 975.785,-327.889 969.401,-330.007 971.875,-325.662 971.875,-325.662 971.875,-325.662 969.401,-330.007 967.964,-323.435 966.927,-334.352 966.927,-334.352"/>
</g>
<!-- User&#45;&gt;Comment -->
<g id="edge18" class="edge"><title>User&#45;&gt;Comment</title>
<path fill="none" stroke="#1817dc" d="M946.98,-866.013C949.219,-743.892 953.825,-582.684 963,-518 971.796,-455.988 989.145,-387.495 1003.98,-335.407"/>
<polygon fill="#1817dc" stroke="#1817dc" points="946.976,-866.218 942.297,-876.136 946.886,-871.217 946.796,-876.216 946.796,-876.216 946.796,-876.216 946.886,-871.217 951.296,-876.297 946.976,-866.218 946.976,-866.218"/>
<polygon fill="#1817dc" stroke="#1817dc" points="1004.06,-335.158 1011.14,-326.791 1005.44,-330.352 1006.82,-325.547 1006.82,-325.547 1006.82,-325.547 1005.44,-330.352 1002.49,-324.304 1004.06,-335.158 1004.06,-335.158"/>
<text text-anchor="middle" x="1008.5" y="-521.8" font-family="Times,serif" font-size="14.00">liked_comments</text>
</g>
<!-- Topic&#45;&gt;Comment -->
<g id="edge22" class="edge"><title>Topic&#45;&gt;Comment</title>
<path fill="none" stroke="#c25941" d="M953.461,-143.093C959.608,-150.799 965.817,-158.669 971.899,-166.466"/>
<ellipse fill="none" stroke="#c25941" cx="950.814" cy="-139.787" rx="4.00002" ry="4.00002"/>
<polygon fill="#c25941" stroke="#c25941" points="971.956,-166.539 974.538,-177.196 975.024,-170.487 978.092,-174.435 978.092,-174.435 978.092,-174.435 975.024,-170.487 981.645,-171.674 971.956,-166.539 971.956,-166.539"/>
</g>
<!-- Comment&#45;&gt;ProfessorSubject -->
<g id="edge25" class="edge"><title>Comment&#45;&gt;ProfessorSubject</title>
<path fill="none" stroke="#13e79a" d="M1160.06,-268.723C1253.51,-289.708 1363,-334.803 1363,-430.5 1363,-1020.5 1363,-1020.5 1363,-1020.5 1363,-1114.71 1282.54,-1192.07 1212.32,-1240.86"/>
<ellipse fill="none" stroke="#13e79a" cx="1156.13" cy="-267.863" rx="4.00001" ry="4.00001"/>
<ellipse fill="#13e79a" stroke="#13e79a" cx="1208.86" cy="-1243.23" rx="4.00002" ry="4.00002"/>
</g>
<!-- Comment&#45;&gt;UserLikeComment -->
<g id="edge23" class="edge"><title>Comment&#45;&gt;UserLikeComment</title>
<path fill="none" stroke="#a17b3f" d="M1093.16,-168.025C1101.22,-157.681 1109.41,-147.181 1117.29,-137.08"/>
<ellipse fill="none" stroke="#a17b3f" cx="1090.62" cy="-171.281" rx="4.00002" ry="4.00002"/>
<polygon fill="#a17b3f" stroke="#a17b3f" points="1117.38,-136.96 1127.08,-131.843 1120.46,-133.018 1123.53,-129.075 1123.53,-129.075 1123.53,-129.075 1120.46,-133.018 1119.99,-126.308 1117.38,-136.96 1117.38,-136.96"/>
</g>
<!-- Comment&#45;&gt;User -->
<g id="edge24" class="edge"><title>Comment&#45;&gt;User</title>
<path fill="none" stroke="#27e6fc" d="M1039.59,-335.943C1045.02,-388.343 1051.26,-456.976 1054,-518 1054.3,-524.66 1056.92,-527.007 1054,-533 1048.31,-544.669 1037.72,-539.896 1031,-551 999.441,-603.135 975.671,-750.722 961.208,-866.269"/>
<polygon fill="#27e6fc" stroke="#27e6fc" points="1039.56,-335.633 1042.99,-325.218 1039.04,-330.66 1038.52,-325.687 1038.52,-325.687 1038.52,-325.687 1039.04,-330.66 1034.04,-326.156 1039.56,-335.633 1039.56,-335.633"/>
<polygon fill="#27e6fc" stroke="#27e6fc" points="961.196,-866.363 955.501,-875.734 960.582,-871.325 959.967,-876.287 959.967,-876.287 959.967,-876.287 960.582,-871.325 964.433,-876.84 961.196,-866.363 961.196,-866.363"/>
<text text-anchor="middle" x="1099.5" y="-521.8" font-family="Times,serif" font-size="14.00">users_that_liked</text>
</g>
<!-- Comment&#45;&gt;Topic -->
<g id="edge27" class="edge"><title>Comment&#45;&gt;Topic</title>
<path fill="none" stroke="#3b13d3" d="M959.61,-167.948C953.138,-159.775 946.664,-151.506 940.405,-143.414"/>
<ellipse fill="none" stroke="#3b13d3" cx="962.277" cy="-171.303" rx="4.00002" ry="4.00002"/>
<ellipse fill="#3b13d3" stroke="#3b13d3" cx="937.644" cy="-139.832" rx="4.00002" ry="4.00002"/>
</g>
<!-- Comment&#45;&gt;Subject -->
<g id="edge26" class="edge"><title>Comment&#45;&gt;Subject</title>
<path fill="none" stroke="#9303a6" d="M900.161,-313.877C890.013,-318.091 879.876,-322.176 870,-326 807.445,-350.225 736.635,-374.09 677.258,-392.884"/>
<ellipse fill="none" stroke="#9303a6" cx="903.858" cy="-312.331" rx="4.00002" ry="4.00002"/>
<ellipse fill="#9303a6" stroke="#9303a6" cx="673.146" cy="-394.181" rx="4.00001" ry="4.00001"/>
</g>
<!-- Subject&#45;&gt;ProfessorSubject -->
<g id="edge30" class="edge"><title>Subject&#45;&gt;ProfessorSubject</title>
<path fill="none" stroke="#25a11e" d="M542.89,-507.814C541.381,-572.64 544.043,-668.08 566,-748 620.978,-948.108 626.871,-1022.94 780,-1163 835.368,-1213.64 912.344,-1246.49 978.026,-1267.04"/>
<ellipse fill="none" stroke="#25a11e" cx="542.999" cy="-503.666" rx="4" ry="4"/>
<polygon fill="#25a11e" stroke="#25a11e" points="978.069,-1267.05 986.312,-1274.28 982.85,-1268.51 987.63,-1269.98 987.63,-1269.98 987.63,-1269.98 982.85,-1268.51 988.949,-1265.68 978.069,-1267.05 978.069,-1267.05"/>
</g>
<!-- Subject&#45;&gt;StudyMaterial -->
<g id="edge31" class="edge"><title>Subject&#45;&gt;StudyMaterial</title>
<path fill="none" stroke="#b0f386" d="M621.473,-357.451C632.277,-346.854 643.41,-335.934 654.239,-325.312"/>
<ellipse fill="none" stroke="#b0f386" cx="618.258" cy="-360.605" rx="4.00002" ry="4.00002"/>
<polygon fill="#b0f386" stroke="#b0f386" points="654.541,-325.016 664.831,-321.226 658.111,-321.514 661.68,-318.013 661.68,-318.013 661.68,-318.013 658.111,-321.514 658.529,-314.801 654.541,-325.016 654.541,-325.016"/>
</g>
<!-- Subject&#45;&gt;Rating -->
<g id="edge28" class="edge"><title>Subject&#45;&gt;Rating</title>
<path fill="none" stroke="#eb83b7" d="M514.229,-356.039C509.765,-345.896 505.182,-335.484 500.719,-325.342"/>
<ellipse fill="none" stroke="#eb83b7" cx="515.86" cy="-359.744" rx="4.00002" ry="4.00002"/>
<ellipse fill="#eb83b7" stroke="#eb83b7" cx="499.105" cy="-321.674" rx="4.00002" ry="4.00002"/>
</g>
<!-- Subject&#45;&gt;CourseSubject -->
<g id="edge29" class="edge"><title>Subject&#45;&gt;CourseSubject</title>
<path fill="none" stroke="#364573" d="M417.634,-367.603C390.83,-354.158 362.88,-339.833 337,-326 330.644,-322.603 324.142,-319.07 317.599,-315.47"/>
<ellipse fill="none" stroke="#364573" cx="421.212" cy="-369.394" rx="4.00002" ry="4.00002"/>
<polygon fill="#364573" stroke="#364573" points="317.41,-315.366 310.838,-306.588 313.035,-312.946 308.66,-310.526 308.66,-310.526 308.66,-310.526 313.035,-312.946 306.482,-314.463 317.41,-315.366 317.41,-315.366"/>
</g>
<!-- Subject&#45;&gt;Comment -->
<g id="edge32" class="edge"><title>Subject&#45;&gt;Comment</title>
<path fill="none" stroke="#089e5d" d="M676.836,-387.691C731.31,-369.792 795.074,-348.045 852,-326 866.997,-320.192 882.597,-313.785 898.057,-307.236"/>
<ellipse fill="none" stroke="#089e5d" cx="673.013" cy="-388.945" rx="4.00001" ry="4.00001"/>
<polygon fill="#089e5d" stroke="#089e5d" points="898.459,-307.064 909.423,-307.283 903.059,-305.104 907.659,-303.143 907.659,-303.143 907.659,-303.143 903.059,-305.104 905.894,-299.004 898.459,-307.064 898.459,-307.064"/>
</g>
<!-- Forum&#45;&gt;Topic -->
<g id="edge33" class="edge"><title>Forum&#45;&gt;Topic</title>
<path fill="none" stroke="#517bc0" d="M102.312,-758.693C82.8617,-702.25 56,-609.309 56,-526.5 56,-526.5 56,-526.5 56,-249 56,-214.614 49.266,-196.807 75,-174 173.305,-86.8749 552.284,-71.0434 756.621,-69.0038"/>
<ellipse fill="none" stroke="#517bc0" cx="103.686" cy="-762.633" rx="4.00001" ry="4.00001"/>
<polygon fill="#517bc0" stroke="#517bc0" points="756.819,-69.0021 766.859,-73.4119 761.819,-68.9571 766.819,-68.9121 766.819,-68.9121 766.819,-68.9121 761.819,-68.9571 766.778,-64.4122 756.819,-69.0021 756.819,-69.0021"/>
</g>
</g>
</svg>
