<?xml version="1.0" encoding="UTF-8" standalone="no"?>
<!DOCTYPE svg PUBLIC "-//W3C//DTD SVG 1.1//EN"
 "http://www.w3.org/Graphics/SVG/1.1/DTD/svg11.dtd">
<!-- Generated by graphviz version 2.38.0 (20140413.2041)
 -->
<!-- Title: models_diagram Pages: 1 -->
<svg width="994pt" height="646pt"
 viewBox="0.00 0.00 994.00 646.00" xmlns="http://www.w3.org/2000/svg" xmlns:xlink="http://www.w3.org/1999/xlink">
<g id="graph0" class="graph" transform="scale(1 1) rotate(0) translate(4 642)">
<title>models_diagram</title>
<polygon fill="none" stroke="none" points="-4,4 -4,-642 990,-642 990,4 -4,4"/>
<!-- _diagram_info -->
<g id="node1" class="node"><title>_diagram_info</title>
<text text-anchor="start" x="8" y="-623.6" font-family="Times,serif" font-size="13.00">Models diagram</text>
<text text-anchor="start" x="8" y="-609.6" font-family="Times,serif" font-size="13.00">Date: Jul 05 2019 &#45; 12:49</text>
<text text-anchor="start" x="8" y="-595.6" font-family="Times,serif" font-size="13.00">Migration version: 20190627152737</text>
<text text-anchor="start" x="8" y="-581.6" font-family="Times,serif" font-size="13.00">Generated by RailRoady 1.5.3</text>
<text text-anchor="start" x="8" y="-567.6" font-family="Times,serif" font-size="13.00">http://railroady.prestonlee.com</text>
</g>
<!-- Department -->
<g id="node2" class="node"><title>Department</title>
<ellipse fill="none" stroke="black" cx="285" cy="-599" rx="52.7911" ry="18"/>
<text text-anchor="middle" x="285" y="-595.3" font-family="Times,serif" font-size="14.00">Department</text>
</g>
<!-- Professor -->
<g id="node10" class="node"><title>Professor</title>
<ellipse fill="none" stroke="black" cx="333" cy="-505" rx="44.393" ry="18"/>
<text text-anchor="middle" x="333" y="-501.3" font-family="Times,serif" font-size="14.00">Professor</text>
</g>
<!-- Department&#45;&gt;Professor -->
<g id="edge2" class="edge"><title>Department&#45;&gt;Professor</title>
<path fill="none" stroke="#898491" d="M297.699,-573.661C304.437,-560.745 312.716,-544.877 319.562,-531.755"/>
<ellipse fill="none" stroke="#898491" cx="295.654" cy="-577.579" rx="4.00002" ry="4.00002"/>
<polygon fill="#898491" stroke="#898491" points="319.626,-531.633 328.242,-524.849 321.939,-527.2 324.252,-522.767 324.252,-522.767 324.252,-522.767 321.939,-527.2 320.262,-520.686 319.626,-531.633 319.626,-531.633"/>
</g>
<!-- Course -->
<g id="node12" class="node"><title>Course</title>
<ellipse fill="none" stroke="black" cx="269" cy="-432" rx="35.9954" ry="18"/>
<text text-anchor="middle" x="269" y="-428.3" font-family="Times,serif" font-size="14.00">Course</text>
</g>
<!-- Department&#45;&gt;Course -->
<g id="edge1" class="edge"><title>Department&#45;&gt;Course</title>
<path fill="none" stroke="#f9ccb5" d="M282.569,-572.932C279.628,-542.605 274.695,-491.729 271.656,-460.394"/>
<ellipse fill="none" stroke="#f9ccb5" cx="282.962" cy="-576.982" rx="4" ry="4"/>
<polygon fill="#f9ccb5" stroke="#f9ccb5" points="271.632,-460.144 275.146,-449.757 271.15,-455.168 270.667,-450.191 270.667,-450.191 270.667,-450.191 271.15,-455.168 266.188,-450.625 271.632,-460.144 271.632,-460.144"/>
</g>
<!-- ProfessorSubject -->
<g id="node3" class="node"><title>ProfessorSubject</title>
<ellipse fill="none" stroke="black" cx="789" cy="-432" rx="70.3881" ry="18"/>
<text text-anchor="middle" x="789" y="-428.3" font-family="Times,serif" font-size="14.00">ProfessorSubject</text>
</g>
<!-- ProfessorSubjectUser -->
<g id="node6" class="node"><title>ProfessorSubjectUser</title>
<ellipse fill="none" stroke="black" cx="853" cy="-251" rx="87.1846" ry="18"/>
<text text-anchor="middle" x="853" y="-247.3" font-family="Times,serif" font-size="14.00">ProfessorSubjectUser</text>
</g>
<!-- ProfessorSubject&#45;&gt;ProfessorSubjectUser -->
<g id="edge4" class="edge"><title>ProfessorSubject&#45;&gt;ProfessorSubjectUser</title>
<path fill="none" stroke="#8a8a66" d="M797.93,-406.024C809.896,-372.558 831.049,-313.396 843.364,-278.951"/>
<ellipse fill="none" stroke="#8a8a66" cx="796.483" cy="-410.07" rx="4.00001" ry="4.00001"/>
<polygon fill="#8a8a66" stroke="#8a8a66" points="843.515,-278.528 851.119,-270.626 845.199,-273.819 846.882,-269.111 846.882,-269.111 846.882,-269.111 845.199,-273.819 842.645,-267.596 843.515,-278.528 843.515,-278.528"/>
</g>
<!-- User -->
<g id="node13" class="node"><title>User</title>
<ellipse fill="none" stroke="black" cx="608" cy="-359" rx="27.0966" ry="18"/>
<text text-anchor="middle" x="608" y="-355.3" font-family="Times,serif" font-size="14.00">User</text>
</g>
<!-- ProfessorSubject&#45;&gt;User -->
<g id="edge5" class="edge"><title>ProfessorSubject&#45;&gt;User</title>
<path fill="none" stroke="#e9d837" d="M742.62,-412.807C710.581,-400.239 668.774,-383.84 640.307,-372.673"/>
<polygon fill="#e9d837" stroke="#e9d837" points="743.063,-412.98 750.729,-420.821 747.717,-414.806 752.372,-416.632 752.372,-416.632 752.372,-416.632 747.717,-414.806 754.015,-412.443 743.063,-412.98 743.063,-412.98"/>
<polygon fill="#e9d837" stroke="#e9d837" points="640.141,-372.608 632.475,-364.767 635.487,-370.782 630.832,-368.956 630.832,-368.956 630.832,-368.956 635.487,-370.782 629.189,-373.145 640.141,-372.608 640.141,-372.608"/>
</g>
<!-- Comment -->
<g id="node15" class="node"><title>Comment</title>
<ellipse fill="none" stroke="black" cx="645" cy="-91" rx="46.2923" ry="18"/>
<text text-anchor="middle" x="645" y="-87.3" font-family="Times,serif" font-size="14.00">Comment</text>
</g>
<!-- ProfessorSubject&#45;&gt;Comment -->
<g id="edge3" class="edge"><title>ProfessorSubject&#45;&gt;Comment</title>
<path fill="none" stroke="#78df9a" d="M850.052,-418.428C901.974,-406.498 968,-386.465 968,-360 968,-360 968,-360 968,-163 968,-108.389 794.05,-95.6372 701.387,-92.759"/>
<ellipse fill="none" stroke="#78df9a" cx="846.08" cy="-419.322" rx="4.00001" ry="4.00001"/>
<polygon fill="#78df9a" stroke="#78df9a" points="701.318,-92.7572 691.449,-87.9771 696.32,-92.6162 691.322,-92.4753 691.322,-92.4753 691.322,-92.4753 696.32,-92.6162 691.196,-96.9735 701.318,-92.7572 701.318,-92.7572"/>
</g>
<!-- Schedule -->
<g id="node4" class="node"><title>Schedule</title>
<ellipse fill="none" stroke="black" cx="442" cy="-251" rx="42.7926" ry="18"/>
<text text-anchor="middle" x="442" y="-247.3" font-family="Times,serif" font-size="14.00">Schedule</text>
</g>
<!-- Subject -->
<g id="node16" class="node"><title>Subject</title>
<ellipse fill="none" stroke="black" cx="371" cy="-164" rx="37.0935" ry="18"/>
<text text-anchor="middle" x="371" y="-160.3" font-family="Times,serif" font-size="14.00">Subject</text>
</g>
<!-- Schedule&#45;&gt;Subject -->
<g id="edge6" class="edge"><title>Schedule&#45;&gt;Subject</title>
<path fill="none" stroke="#192140" d="M421.649,-225.636C412.026,-214.115 400.574,-200.406 390.997,-188.94"/>
<polygon fill="#192140" stroke="#192140" points="421.9,-225.936 424.857,-236.496 425.105,-229.774 428.31,-233.611 428.31,-233.611 428.31,-233.611 425.105,-229.774 431.764,-230.726 421.9,-225.936 421.9,-225.936"/>
<polygon fill="#192140" stroke="#192140" points="390.817,-188.725 387.86,-178.165 387.612,-184.888 384.407,-181.05 384.407,-181.05 384.407,-181.05 387.612,-184.888 380.953,-183.935 390.817,-188.725 390.817,-188.725"/>
</g>
<!-- StudyMaterial -->
<g id="node5" class="node"><title>StudyMaterial</title>
<ellipse fill="none" stroke="black" cx="481" cy="-91" rx="61.99" ry="18"/>
<text text-anchor="middle" x="481" y="-87.3" font-family="Times,serif" font-size="14.00">StudyMaterial</text>
</g>
<!-- ApplicationRecord -->
<g id="node7" class="node"><title>ApplicationRecord</title>
<ellipse fill="none" stroke="black" cx="433" cy="-599" rx="77.1866" ry="18"/>
<text text-anchor="middle" x="433" y="-595.3" font-family="Times,serif" font-size="14.00">ApplicationRecord</text>
</g>
<!-- Rating -->
<g id="node8" class="node"><title>Rating</title>
<ellipse fill="none" stroke="black" cx="367" cy="-91" rx="34.394" ry="18"/>
<text text-anchor="middle" x="367" y="-87.3" font-family="Times,serif" font-size="14.00">Rating</text>
</g>
<!-- CourseSubject -->
<g id="node9" class="node"><title>CourseSubject</title>
<ellipse fill="none" stroke="black" cx="253" cy="-91" rx="61.99" ry="18"/>
<text text-anchor="middle" x="253" y="-87.3" font-family="Times,serif" font-size="14.00">CourseSubject</text>
</g>
<!-- Professor&#45;&gt;ProfessorSubject -->
<g id="edge8" class="edge"><title>Professor&#45;&gt;ProfessorSubject</title>
<path fill="none" stroke="#941adc" d="M381.605,-496.432C463.126,-483.739 627.606,-458.129 720.708,-443.633"/>
<ellipse fill="none" stroke="#941adc" cx="377.419" cy="-497.084" rx="4.00001" ry="4.00001"/>
<polygon fill="#941adc" stroke="#941adc" points="720.713,-443.633 731.286,-446.54 725.653,-442.863 730.594,-442.094 730.594,-442.094 730.594,-442.094 725.653,-442.863 729.901,-437.648 720.713,-443.633 720.713,-443.633"/>
</g>
<!-- Professor&#45;&gt;Course -->
<g id="edge7" class="edge"><title>Professor&#45;&gt;Course</title>
<path fill="none" stroke="#d1ab2c" d="M307.776,-482.926C299.483,-474.445 290.6,-464.64 283.349,-455.976"/>
<ellipse fill="none" stroke="#d1ab2c" cx="310.608" cy="-485.763" rx="4.00002" ry="4.00002"/>
<ellipse fill="#d1ab2c" stroke="#d1ab2c" cx="280.688" cy="-452.714" rx="4.00002" ry="4.00002"/>
</g>
<!-- Professor&#45;&gt;Subject -->
<g id="edge9" class="edge"><title>Professor&#45;&gt;Subject</title>
<path fill="none" stroke="#71c818" d="M333,-476.489C333,-463.329 333,-447.349 333,-433 333,-433 333,-433 333,-250 333,-228.515 343.243,-206.427 353.094,-190.154"/>
<polygon fill="#71c818" stroke="#71c818" points="333,-476.784 328.5,-486.784 333,-481.784 333,-486.784 333,-486.784 333,-486.784 333,-481.784 337.5,-486.784 333,-476.784 333,-476.784"/>
<polygon fill="#71c818" stroke="#71c818" points="353.375,-189.714 362.557,-183.719 356.071,-185.503 358.767,-181.293 358.767,-181.293 358.767,-181.293 356.071,-185.503 354.978,-178.866 353.375,-189.714 353.375,-189.714"/>
</g>
<!-- UserLikeComment -->
<g id="node11" class="node"><title>UserLikeComment</title>
<ellipse fill="none" stroke="black" cx="796" cy="-18" rx="79.0865" ry="18"/>
<text text-anchor="middle" x="796" y="-14.3" font-family="Times,serif" font-size="14.00">UserLikeComment</text>
</g>
<!-- Course&#45;&gt;CourseSubject -->
<g id="edge11" class="edge"><title>Course&#45;&gt;CourseSubject</title>
<path fill="none" stroke="#f9e4c2" d="M261.095,-406.097C257.485,-392.6 254,-375.545 254,-360 254,-360 254,-360 254,-163 254,-148.65 253.793,-132.67 253.568,-119.509"/>
<ellipse fill="none" stroke="#f9e4c2" cx="262.24" cy="-410.147" rx="4.00001" ry="4.00001"/>
<polygon fill="#f9e4c2" stroke="#f9e4c2" points="253.562,-119.214 257.877,-109.132 253.47,-114.215 253.378,-109.215 253.378,-109.215 253.378,-109.215 253.47,-114.215 248.879,-109.298 253.562,-119.214 253.562,-119.214"/>
</g>
<!-- Course&#45;&gt;Professor -->
<g id="edge14" class="edge"><title>Course&#45;&gt;Professor</title>
<path fill="none" stroke="#7b48ab" d="M294.066,-453.912C302.298,-462.322 311.127,-472.055 318.372,-480.691"/>
<ellipse fill="none" stroke="#7b48ab" cx="290.753" cy="-450.605" rx="4.00002" ry="4.00002"/>
<ellipse fill="#7b48ab" stroke="#7b48ab" cx="321.141" cy="-484.077" rx="4.00002" ry="4.00002"/>
</g>
<!-- Course&#45;&gt;User -->
<g id="edge10" class="edge"><title>Course&#45;&gt;User</title>
<path fill="none" stroke="#6e2de0" d="M309.751,-422.465C376.686,-408.446 508.8,-380.776 572.289,-367.479"/>
<ellipse fill="none" stroke="#6e2de0" cx="305.42" cy="-423.372" rx="4.00001" ry="4.00001"/>
<polygon fill="#6e2de0" stroke="#6e2de0" points="572.443,-367.447 583.153,-369.802 577.337,-366.422 582.231,-365.397 582.231,-365.397 582.231,-365.397 577.337,-366.422 581.308,-360.993 572.443,-367.447 572.443,-367.447"/>
</g>
<!-- Course&#45;&gt;Subject -->
<g id="edge12" class="edge"><title>Course&#45;&gt;Subject</title>
<path fill="none" stroke="#12c575" d="M268.551,-403.891C269.076,-357.968 275.834,-263.672 319,-200 323.594,-193.223 329.979,-187.407 336.706,-182.572"/>
<polygon fill="#12c575" stroke="#12c575" points="268.551,-403.962 264.029,-413.952 268.54,-408.962 268.529,-413.962 268.529,-413.962 268.529,-413.962 268.54,-408.962 273.029,-413.971 268.551,-403.962 268.551,-403.962"/>
<polygon fill="#12c575" stroke="#12c575" points="336.92,-182.432 347.756,-180.744 341.11,-179.702 345.299,-176.973 345.299,-176.973 345.299,-176.973 341.11,-179.702 342.843,-173.203 336.92,-182.432 336.92,-182.432"/>
</g>
<!-- Forum -->
<g id="node17" class="node"><title>Forum</title>
<ellipse fill="none" stroke="black" cx="185" cy="-305" rx="34.394" ry="18"/>
<text text-anchor="middle" x="185" y="-301.3" font-family="Times,serif" font-size="14.00">Forum</text>
</g>
<!-- Course&#45;&gt;Forum -->
<g id="edge13" class="edge"><title>Course&#45;&gt;Forum</title>
<path fill="none" stroke="#6658b3" d="M249.935,-408.961C246.517,-404.742 243.07,-400.298 240,-396 224.541,-374.356 208.918,-348.3 198.295,-329.806"/>
<ellipse fill="none" stroke="#6658b3" cx="252.672" cy="-412.27" rx="4.00002" ry="4.00002"/>
<ellipse fill="#6658b3" stroke="#6658b3" cx="196.043" cy="-325.854" rx="4.00002" ry="4.00002"/>
</g>
<!-- User&#45;&gt;Schedule -->
<g id="edge15" class="edge"><title>User&#45;&gt;Schedule</title>
<path fill="none" stroke="#93e39c" d="M573.416,-352.265C550.756,-347.274 521.314,-338.349 499,-323 481.043,-310.648 465.894,-291.005 455.737,-275.508"/>
<ellipse fill="none" stroke="#93e39c" cx="577.515" cy="-353.117" rx="4.00001" ry="4.00001"/>
<ellipse fill="#93e39c" stroke="#93e39c" cx="453.573" cy="-272.098" rx="4.00002" ry="4.00002"/>
</g>
<!-- User&#45;&gt;StudyMaterial -->
<g id="edge19" class="edge"><title>User&#45;&gt;StudyMaterial</title>
<path fill="none" stroke="#bdc376" d="M575.018,-348.642C561.419,-343.217 546.623,-335.015 537,-323 488.519,-262.47 481.039,-166.32 480.489,-119.47"/>
<ellipse fill="none" stroke="#bdc376" cx="579.085" cy="-350.14" rx="4.00001" ry="4.00001"/>
<polygon fill="#bdc376" stroke="#bdc376" points="480.489,-119.196 484.973,-109.189 480.481,-114.196 480.473,-109.196 480.473,-109.196 480.473,-109.196 480.481,-114.196 475.973,-109.203 480.489,-119.196 480.489,-119.196"/>
</g>
<!-- User&#45;&gt;ProfessorSubjectUser -->
<g id="edge20" class="edge"><title>User&#45;&gt;ProfessorSubjectUser</title>
<path fill="none" stroke="#62b1e0" d="M642.78,-353.288C672.714,-348.368 716.551,-339.068 752,-323 779.16,-310.689 806.629,-290.79 826.05,-275.186"/>
<ellipse fill="none" stroke="#62b1e0" cx="638.676" cy="-353.936" rx="4.00001" ry="4.00001"/>
<polygon fill="#62b1e0" stroke="#62b1e0" points="826.118,-275.13 836.707,-272.278 829.987,-271.963 833.856,-268.796 833.856,-268.796 833.856,-268.796 829.987,-271.963 831.006,-265.314 826.118,-275.13 826.118,-275.13"/>
</g>
<!-- User&#45;&gt;UserLikeComment -->
<g id="edge16" class="edge"><title>User&#45;&gt;UserLikeComment</title>
<path fill="none" stroke="#2f5e32" d="M637.507,-344.684C649.091,-338.813 662.177,-331.346 673,-323 716.328,-289.587 711.13,-262.828 757,-233 777.503,-219.668 794.814,-234.922 809,-215 845.106,-164.294 823.115,-86.252 807.519,-45.6343"/>
<ellipse fill="none" stroke="#2f5e32" cx="633.738" cy="-346.538" rx="4.00002" ry="4.00002"/>
<polygon fill="#2f5e32" stroke="#2f5e32" points="807.441,-45.4397 807.91,-34.4838 805.586,-40.7966 803.731,-36.1535 803.731,-36.1535 803.731,-36.1535 805.586,-40.7966 799.552,-37.8232 807.441,-45.4397 807.441,-45.4397"/>
</g>
<!-- Topic -->
<g id="node14" class="node"><title>Topic</title>
<ellipse fill="none" stroke="black" cx="598" cy="-18" rx="31.3957" ry="18"/>
<text text-anchor="middle" x="598" y="-14.3" font-family="Times,serif" font-size="14.00">Topic</text>
</g>
<!-- User&#45;&gt;Topic -->
<g id="edge21" class="edge"><title>User&#45;&gt;Topic</title>
<path fill="none" stroke="#65813d" d="M597.887,-333.945C596.714,-330.331 595.692,-326.607 595,-323 577.079,-229.566 591.111,-204.131 590,-109 589.813,-93.0011 588.824,-88.9568 590,-73 590.653,-64.1302 591.903,-54.5068 593.223,-45.8743"/>
<ellipse fill="none" stroke="#65813d" cx="599.276" cy="-337.824" rx="4.00001" ry="4.00001"/>
<polygon fill="#65813d" stroke="#65813d" points="593.232,-45.824 599.276,-36.6746 594.033,-40.8886 594.834,-35.9533 594.834,-35.9533 594.834,-35.9533 594.033,-40.8886 590.393,-35.232 593.232,-45.824 593.232,-45.824"/>
</g>
<!-- User&#45;&gt;Comment -->
<g id="edge17" class="edge"><title>User&#45;&gt;Comment</title>
<path fill="none" stroke="#ea0b3e" d="M603.845,-332.527C599.48,-301.082 594.35,-246.106 603,-200 608.469,-170.85 621.567,-139.458 631.694,-118.073"/>
<ellipse fill="none" stroke="#ea0b3e" cx="604.466" cy="-336.788" rx="4.00001" ry="4.00001"/>
<polygon fill="#ea0b3e" stroke="#ea0b3e" points="631.733,-117.992 640.148,-110.96 633.917,-113.493 636.1,-108.995 636.1,-108.995 636.1,-108.995 633.917,-113.493 632.052,-107.03 631.733,-117.992 631.733,-117.992"/>
</g>
<!-- User&#45;&gt;Comment -->
<g id="edge18" class="edge"><title>User&#45;&gt;Comment</title>
<path fill="none" stroke="#8b195b" d="M612.039,-330.888C612.386,-328.225 612.713,-325.562 613,-323 619.103,-268.494 615.29,-254.302 623,-200 625.173,-184.697 633.365,-145.697 639.114,-119.004"/>
<polygon fill="#8b195b" stroke="#8b195b" points="612.019,-331.031 606.192,-340.32 611.334,-335.984 610.65,-340.937 610.65,-340.937 610.65,-340.937 611.334,-335.984 615.107,-341.553 612.019,-331.031 612.019,-331.031"/>
<polygon fill="#8b195b" stroke="#8b195b" points="639.14,-118.883 645.652,-110.06 640.197,-113.996 641.254,-109.109 641.254,-109.109 641.254,-109.109 640.197,-113.996 636.856,-108.157 639.14,-118.883 639.14,-118.883"/>
<text text-anchor="middle" x="668.5" y="-203.8" font-family="Times,serif" font-size="14.00">liked_comments</text>
</g>
<!-- Topic&#45;&gt;Comment -->
<g id="edge22" class="edge"><title>Topic&#45;&gt;Comment</title>
<path fill="none" stroke="#4722fa" d="M618.542,-40.5676C623.971,-47.9518 629.581,-56.292 634.313,-63.9898"/>
<ellipse fill="none" stroke="#4722fa" cx="616.055" cy="-37.2878" rx="4.00002" ry="4.00002"/>
<polygon fill="#4722fa" stroke="#4722fa" points="634.432,-64.1926 635.622,-75.0938 636.966,-68.5028 639.501,-72.8129 639.501,-72.8129 639.501,-72.8129 636.966,-68.5028 643.38,-70.532 634.432,-64.1926 634.432,-64.1926"/>
</g>
<!-- Comment&#45;&gt;ProfessorSubject -->
<g id="edge25" class="edge"><title>Comment&#45;&gt;ProfessorSubject</title>
<path fill="none" stroke="#846836" d="M699.294,-92.4206C795.634,-94.55 986,-105.87 986,-163 986,-360 986,-360 986,-360 986,-387.907 912.585,-408.661 855.313,-420.305"/>
<ellipse fill="none" stroke="#846836" cx="695.117" cy="-92.3371" rx="4" ry="4"/>
<ellipse fill="#846836" stroke="#846836" cx="851.272" cy="-421.108" rx="4.00001" ry="4.00001"/>
</g>
<!-- Comment&#45;&gt;UserLikeComment -->
<g id="edge23" class="edge"><title>Comment&#45;&gt;UserLikeComment</title>
<path fill="none" stroke="#17283c" d="M680.857,-73.1399C702.755,-62.8438 730.862,-49.6276 753.825,-38.8306"/>
<ellipse fill="none" stroke="#17283c" cx="677.022" cy="-74.9434" rx="4.00002" ry="4.00002"/>
<polygon fill="#17283c" stroke="#17283c" points="753.944,-38.7747 764.908,-38.5918 758.469,-36.6471 762.994,-34.5195 762.994,-34.5195 762.994,-34.5195 758.469,-36.6471 761.079,-30.4472 753.944,-38.7747 753.944,-38.7747"/>
</g>
<!-- Comment&#45;&gt;User -->
<g id="edge24" class="edge"><title>Comment&#45;&gt;User</title>
<path fill="none" stroke="#5ea325" d="M671.419,-114.641C695.764,-138.417 726.385,-177.495 714,-215 697.596,-264.677 656.534,-311.187 630.599,-336.994"/>
<polygon fill="#5ea325" stroke="#5ea325" points="671.402,-114.625 667.203,-104.495 667.761,-111.198 664.119,-107.772 664.119,-107.772 664.119,-107.772 667.761,-111.198 661.035,-111.049 671.402,-114.625 671.402,-114.625"/>
<polygon fill="#5ea325" stroke="#5ea325" points="630.559,-337.033 620.258,-340.793 626.979,-340.524 623.399,-344.014 623.399,-344.014 623.399,-344.014 626.979,-340.524 626.541,-347.236 630.559,-337.033 630.559,-337.033"/>
<text text-anchor="middle" x="760.5" y="-203.8" font-family="Times,serif" font-size="14.00">users_that_liked</text>
</g>
<!-- Comment&#45;&gt;Topic -->
<g id="edge27" class="edge"><title>Comment&#45;&gt;Topic</title>
<path fill="none" stroke="#6b49bd" d="M623.76,-67.4787C618.075,-59.6835 612.243,-50.92 607.468,-43.0098"/>
<ellipse fill="none" stroke="#6b49bd" cx="626.172" cy="-70.6906" rx="4.00002" ry="4.00002"/>
<ellipse fill="#6b49bd" stroke="#6b49bd" cx="605.426" cy="-39.4956" rx="4.00002" ry="4.00002"/>
</g>
<!-- Comment&#45;&gt;Subject -->
<g id="edge26" class="edge"><title>Comment&#45;&gt;Subject</title>
<path fill="none" stroke="#2628b5" d="M601.334,-104.692C549.139,-118.758 462.693,-141.109 411.791,-153.659"/>
<ellipse fill="none" stroke="#2628b5" cx="605.231" cy="-103.638" rx="4.00001" ry="4.00001"/>
<ellipse fill="#2628b5" stroke="#2628b5" cx="407.755" cy="-154.649" rx="4.00001" ry="4.00001"/>
</g>
<!-- Subject&#45;&gt;ProfessorSubject -->
<g id="edge30" class="edge"><title>Subject&#45;&gt;ProfessorSubject</title>
<path fill="none" stroke="#7423cc" d="M370.661,-190.432C371.47,-212.67 375.415,-245.061 390,-269 410.444,-302.555 426.567,-302.356 460,-323 507.02,-352.034 520.024,-358.229 572,-377 621.966,-395.046 680.518,-409.228 724.2,-418.522"/>
<ellipse fill="none" stroke="#7423cc" cx="370.571" cy="-186.156" rx="4" ry="4"/>
<polygon fill="#7423cc" stroke="#7423cc" points="724.339,-418.551 733.202,-425.008 729.232,-419.578 734.126,-420.604 734.126,-420.604 734.126,-420.604 729.232,-419.578 735.05,-416.2 724.339,-418.551 724.339,-418.551"/>
</g>
<!-- Subject&#45;&gt;StudyMaterial -->
<g id="edge31" class="edge"><title>Subject&#45;&gt;StudyMaterial</title>
<path fill="none" stroke="#8dccef" d="M399.241,-144.772C414.048,-135.214 432.277,-123.448 447.762,-113.453"/>
<ellipse fill="none" stroke="#8dccef" cx="395.831" cy="-146.973" rx="4.00002" ry="4.00002"/>
<polygon fill="#8dccef" stroke="#8dccef" points="448.114,-113.226 458.956,-111.584 452.315,-110.515 456.516,-107.803 456.516,-107.803 456.516,-107.803 452.315,-110.515 454.076,-104.023 448.114,-113.226 448.114,-113.226"/>
</g>
<!-- Subject&#45;&gt;Rating -->
<g id="edge28" class="edge"><title>Subject&#45;&gt;Rating</title>
<path fill="none" stroke="#ebea2a" d="M369.58,-137.791C369.202,-131.087 368.794,-123.847 368.417,-117.147"/>
<ellipse fill="none" stroke="#ebea2a" cx="369.807" cy="-141.819" rx="4" ry="4"/>
<ellipse fill="#ebea2a" stroke="#ebea2a" cx="368.184" cy="-113.023" rx="4" ry="4"/>
</g>
<!-- Subject&#45;&gt;CourseSubject -->
<g id="edge29" class="edge"><title>Subject&#45;&gt;CourseSubject</title>
<path fill="none" stroke="#918607" d="M341.428,-145.207C324.982,-135.311 304.436,-122.949 287.289,-112.631"/>
<ellipse fill="none" stroke="#918607" cx="345.1" cy="-147.416" rx="4.00002" ry="4.00002"/>
<polygon fill="#918607" stroke="#918607" points="287.24,-112.602 280.991,-103.59 282.956,-110.024 278.671,-107.446 278.671,-107.446 278.671,-107.446 282.956,-110.024 276.351,-111.302 287.24,-112.602 287.24,-112.602"/>
</g>
<!-- Subject&#45;&gt;Comment -->
<g id="edge32" class="edge"><title>Subject&#45;&gt;Comment</title>
<path fill="none" stroke="#d2f36e" d="M409.846,-151.609C458.877,-138.337 542.994,-116.542 596.271,-103.306"/>
<ellipse fill="none" stroke="#d2f36e" cx="405.683" cy="-152.741" rx="4.00001" ry="4.00001"/>
<polygon fill="#d2f36e" stroke="#d2f36e" points="596.463,-103.258 607.251,-105.226 601.317,-102.058 606.17,-100.858 606.17,-100.858 606.17,-100.858 601.317,-102.058 605.09,-96.4894 596.463,-103.258 596.463,-103.258"/>
</g>
<!-- Forum&#45;&gt;Topic -->
<g id="edge33" class="edge"><title>Forum&#45;&gt;Topic</title>
<path fill="none" stroke="#68971c" d="M176.099,-279.374C169.997,-260.296 163,-233.064 163,-208.5 163,-208.5 163,-208.5 163,-90 163,-50.3347 448.363,-28.3461 556.834,-21.4207"/>
<ellipse fill="none" stroke="#68971c" cx="177.377" cy="-283.223" rx="4.00001" ry="4.00001"/>
<polygon fill="#68971c" stroke="#68971c" points="557.084,-21.4051 567.346,-25.2701 562.074,-21.092 567.065,-20.7789 567.065,-20.7789 567.065,-20.7789 562.074,-21.092 566.783,-16.2877 557.084,-21.4051 557.084,-21.4051"/>
</g>
</g>
</svg>
